<?xml version="1.0" encoding="utf-8"?>
<!-- Generator: Adobe Illustrator 24.3.0, SVG Export Plug-In . SVG Version: 6.00 Build 0)  -->
<svg version="1.1" id="Layer_1" xmlns="http://www.w3.org/2000/svg" xmlns:xlink="http://www.w3.org/1999/xlink" x="0px" y="0px"
	 viewBox="0 0 24 22" style="enable-background:new 0 0 24 22;" xml:space="preserve">
<style type="text/css">
	.st0{fill:#2D6851;}
</style>
<g>
	<path class="st0" d="M15,2.6V2.3c0-1-0.8-1.8-1.8-1.8h-2.1c-0.3,0-0.6,0.3-0.6,0.6v0H9.8c-0.3,0-0.6,0.3-0.6,0.6s0.3,0.6,0.6,0.6
		h0.7v1.4H9.8c-0.3,0-0.6,0.3-0.6,0.6C9.2,4.8,9.5,5,9.8,5h0.7c0,0.3,0.3,0.6,0.6,0.6h2.1c1,0,1.8-0.8,1.8-1.8c3,1.4,5,4.4,5,7.8
		c0,4.7-3.8,8.6-8.6,8.6c-4.7,0-8.6-3.8-8.6-8.6c0-3.1,1.6-5.9,4.3-7.4c0.3-0.2,0.4-0.5,0.2-0.8C7.2,3.1,6.9,3,6.6,3.2
		C1,6.4,0,14.1,4.5,18.6c3.8,3.8,10,3.8,13.9,0c1.9-1.9,2.9-4.3,2.9-6.9C21.3,7.6,18.8,4,15,2.6z"/>
	<path class="st0" d="M6.7,9.9L6.2,9.4C6,9.2,5.6,9.2,5.4,9.5c-0.2,0.2-0.2,0.6,0,0.9L6.1,11l-0.3,0.2c-0.2,0.1-0.3,0.3-0.3,0.5v2.1
		c0,0.3,0.3,0.6,0.6,0.6h10.8c0.3,0,0.6-0.3,0.6-0.6v-2.1c0-0.2-0.1-0.4-0.3-0.5L16.9,11l0.6-0.6c0.2-0.2,0.3-0.6,0-0.9
		c-0.2-0.2-0.6-0.3-0.9,0l-0.4,0.4L15.7,8c-0.2-0.8-0.9-1.4-1.8-1.4H9C8.1,6.6,7.4,7.1,7.2,8L6.7,9.9z M8.4,8.3C8.5,8,8.7,7.8,9,7.8
		h5c0.3,0,0.5,0.2,0.6,0.5l0.6,2.2H7.8L8.4,8.3z"/>
	<path class="st0" d="M7.9,17.4c0.7,0,1.3-0.6,1.3-1.3v-0.4H6.5v0.4C6.5,16.8,7.1,17.4,7.9,17.4z"/>
	<path class="st0" d="M15.1,17.4c0.7,0,1.3-0.6,1.3-1.3v-0.4h-2.6v0.4C13.8,16.8,14.4,17.4,15.1,17.4z"/>
</g>
</svg>
