<svg width="67" height="60" viewBox="0 0 67 60" fill="none" xmlns="http://www.w3.org/2000/svg">
<g filter="url(#filter0_d_493_273)">
<path d="M55.78 24.7071C55.3308 26.2927 54.4326 27.6669 53.2527 28.5752C52.3104 29.3017 51.2404 29.6817 50.1881 29.6817C49.7918 29.6817 49.4043 29.6288 49.0213 29.5205C47.6299 29.1225 46.5027 28.0173 45.9303 26.4876C45.4064 25.0932 45.3711 23.4526 45.8203 21.8665C46.2737 20.2809 47.172 18.9067 48.3476 17.9984C49.6422 17.0007 51.1832 16.6559 52.579 17.0531C53.9704 17.4512 55.102 18.5563 55.6744 20.086C56.1939 21.4805 56.2335 23.1211 55.78 24.7071ZM26.3407 20.6994C27.9963 20.6994 29.5771 19.7778 30.6778 18.1698C31.6772 16.7119 32.2277 14.8023 32.2277 12.7919C32.2277 10.7796 31.6772 8.87003 30.6778 7.41212C29.577 5.80459 27.9962 4.88293 26.3407 4.88293C24.6807 4.88293 23.1001 5.8045 21.9992 7.41212C21.0042 8.87003 20.4538 10.7796 20.4538 12.7919C20.4538 14.8023 21.0042 16.7119 21.9992 18.1698C23.1001 19.7778 24.6808 20.6994 26.3407 20.6994ZM40.6597 20.6994C42.3197 20.6994 43.9004 19.7778 45.0012 18.1698C45.9962 16.7119 46.5467 14.8023 46.5467 12.7919C46.5467 10.7796 45.9962 8.87003 45.0012 7.41212C43.9004 5.80459 42.3197 4.88293 40.6597 4.88293C39.0041 4.88293 37.4234 5.8045 36.3227 7.41212C35.3232 8.87003 34.7728 10.7796 34.7728 12.7919C34.7728 14.8023 35.3232 16.7119 36.3227 18.1698C37.4234 19.7778 39.0041 20.6994 40.6597 20.6994ZM21.1802 21.8675C20.7268 20.2811 19.8286 18.9069 18.6528 17.9985C17.3583 17.0008 15.8173 16.656 14.4214 17.0532C13.0257 17.4512 11.8984 18.5564 11.326 20.0861C10.8064 21.4805 10.7669 23.1212 11.2203 24.7072C11.6695 26.2928 12.5677 27.667 13.7477 28.5753C14.6899 29.3018 15.7599 29.6818 16.8122 29.6818C17.2041 29.6818 17.596 29.6289 17.9747 29.5206C19.3704 29.1226 20.4977 28.0174 21.07 26.4877C21.5942 25.0933 21.6294 23.4527 21.1802 21.8675ZM42.1391 25.734C39.7262 23.1977 36.6616 21.802 33.5002 21.802C30.3388 21.802 27.2698 23.1977 24.8657 25.734C22.5672 28.1526 20.9645 31.5087 20.348 35.1857C19.9562 37.5312 20.6694 39.7887 22.3118 41.3787C24.0202 43.0334 26.2526 43.5358 28.4366 42.7591C30.0526 42.1822 31.7566 41.8899 33.5002 41.8899C35.2439 41.8899 36.9479 42.1823 38.5638 42.7591C39.2375 42.9986 39.9156 43.117 40.5805 43.117C42.0731 43.117 43.5042 42.5235 44.6841 41.3787C46.3309 39.7888 47.0442 37.5313 46.6523 35.1857C46.0359 31.5086 44.4332 28.1525 42.1391 25.734Z" fill="#2D6851"/>
</g>
<defs>
<filter id="filter0_d_493_273" x="0.90625" y="0.882935" width="65.1875" height="58.2341" filterUnits="userSpaceOnUse" color-interpolation-filters="sRGB">
<feFlood flood-opacity="0" result="BackgroundImageFix"/>
<feColorMatrix in="SourceAlpha" type="matrix" values="0 0 0 0 0 0 0 0 0 0 0 0 0 0 0 0 0 0 127 0" result="hardAlpha"/>
<feOffset dy="6"/>
<feGaussianBlur stdDeviation="5"/>
<feComposite in2="hardAlpha" operator="out"/>
<feColorMatrix type="matrix" values="0 0 0 0 0.10816 0 0 0 0 0.291667 0 0 0 0 0.22013 0 0 0 0.3 0"/>
<feBlend mode="normal" in2="BackgroundImageFix" result="effect1_dropShadow_493_273"/>
<feBlend mode="normal" in="SourceGraphic" in2="effect1_dropShadow_493_273" result="shape"/>
</filter>
</defs>
</svg>
