<svg width="35" height="40" viewBox="0 0 35 40" fill="none" xmlns="http://www.w3.org/2000/svg">
<g filter="url(#filter0_d_419_5235)">
<path d="M17.5 4C13.365 4 10 7.38833 10 11.5542C10 17.4733 16.795 23.585 17.0842 23.8417C17.2033 23.9475 17.3517 24 17.5 24C17.6483 24 17.7967 23.9475 17.9158 23.8425C18.205 23.585 25 17.4733 25 11.5542C25 7.38833 21.635 4 17.5 4ZM17.5 15.6667C15.2025 15.6667 13.3333 13.7975 13.3333 11.5C13.3333 9.2025 15.2025 7.33333 17.5 7.33333C19.7975 7.33333 21.6667 9.2025 21.6667 11.5C21.6667 13.7975 19.7975 15.6667 17.5 15.6667Z" fill="#2D6851"/>
</g>
<defs>
<filter id="filter0_d_419_5235" x="0" y="0" width="35" height="40" filterUnits="userSpaceOnUse" color-interpolation-filters="sRGB">
<feFlood flood-opacity="0" result="BackgroundImageFix"/>
<feColorMatrix in="SourceAlpha" type="matrix" values="0 0 0 0 0 0 0 0 0 0 0 0 0 0 0 0 0 0 127 0" result="hardAlpha"/>
<feOffset dy="6"/>
<feGaussianBlur stdDeviation="5"/>
<feComposite in2="hardAlpha" operator="out"/>
<feColorMatrix type="matrix" values="0 0 0 0 0.10816 0 0 0 0 0.291667 0 0 0 0 0.22013 0 0 0 0.3 0"/>
<feBlend mode="normal" in2="BackgroundImageFix" result="effect1_dropShadow_419_5235"/>
<feBlend mode="normal" in="SourceGraphic" in2="effect1_dropShadow_419_5235" result="shape"/>
</filter>
</defs>
</svg>
