<?xml version="1.0" encoding="utf-8"?>
<!-- Generator: Adobe Illustrator 24.3.0, SVG Export Plug-In . SVG Version: 6.00 Build 0)  -->
<svg version="1.1" id="Layer_1" xmlns="http://www.w3.org/2000/svg" xmlns:xlink="http://www.w3.org/1999/xlink" x="0px" y="0px"
	 viewBox="0 0 24 22" style="enable-background:new 0 0 24 22;" xml:space="preserve">
<style type="text/css">
	.st0{fill:#2D6851;}
</style>
<path class="st0" d="M14.5,4.4c1.1,0.7,1.9,1.9,2,3.2c0.5,0.2,1,0.3,1.5,0.3c1.9,0,3.5-1.6,3.5-3.5c0-1.9-1.6-3.5-3.5-3.5
	C16.1,0.9,14.5,2.4,14.5,4.4z M12.2,11.6c1.9,0,3.5-1.6,3.5-3.5s-1.6-3.5-3.5-3.5c-1.9,0-3.5,1.6-3.5,3.5S10.2,11.6,12.2,11.6z
	 M13.7,11.8h-3c-2.5,0-4.5,2-4.5,4.5V20l0,0.1l0.3,0.1c2.4,0.7,4.4,1,6.1,1c3.3,0,5.2-0.9,5.4-1l0.2-0.1h0v-3.7
	C18.2,13.8,16.2,11.8,13.7,11.8z M19.5,8.2h-3c0,1.2-0.5,2.3-1.3,3c2.2,0.7,3.8,2.7,3.8,5.1v1.1c2.9-0.1,4.6-0.9,4.7-1l0.2-0.1h0
	v-3.7C24,10.2,22,8.2,19.5,8.2z M6,7.9c0.7,0,1.3-0.2,1.9-0.5C8,6.3,8.6,5.3,9.5,4.6c0-0.1,0-0.1,0-0.2c0-1.9-1.6-3.5-3.5-3.5
	c-1.9,0-3.5,1.6-3.5,3.5C2.5,6.4,4.1,7.9,6,7.9z M9.2,11.2c-0.8-0.8-1.3-1.8-1.3-3c-0.1,0-0.2,0-0.3,0h-3C2,8.2,0,10.2,0,12.7v3.7
	l0,0.1l0.3,0.1c1.9,0.6,3.6,0.9,5.1,1v-1.1C5.3,13.9,7,11.9,9.2,11.2z"/>
</svg>
