<?xml version="1.0" encoding="utf-8"?>
<!-- Generator: Adobe Illustrator 24.3.0, SVG Export Plug-In . SVG Version: 6.00 Build 0)  -->
<svg version="1.1" id="Layer_1" xmlns="http://www.w3.org/2000/svg" xmlns:xlink="http://www.w3.org/1999/xlink" x="0px" y="0px"
	 viewBox="0 0 24 22" style="enable-background:new 0 0 24 22;" xml:space="preserve">
<style type="text/css">
	.st0{fill:#2D6851;}
</style>
<path class="st0" d="M20.3,12.8C20.3,12.8,20.3,12.8,20.3,12.8h-7.8l1.8-1.3l0.6,0.7h2.8l-2.4-2.8c-0.4-0.4-1-0.5-1.4-0.2L12.7,10
	c-0.2,0.4-0.5,0.7-0.9,0.9c-0.4,0.1-3.4,1.1-4,1.3c-0.4,0.1-0.8,0-1.1-0.3L4.3,9.6L7,11.4c0.2,0.2,0.5,0.2,0.8,0.1l3.8-1.2
	c0.5-0.2,0.7-0.7,0.6-1.1C12,8.7,11.5,8.4,11,8.6L7.6,9.7L5.3,8.1l2.2,1L9,8.6L7.7,7.3l2.4-2.7c0.3-0.3,0.3-0.7,0.1-1.1
	C10.1,3.2,9.8,3.1,9.5,3L5.6,2.8C5.8,2.9,5.9,3,6,3.1c0.4,0.4,0.7,1,0.8,1.6l0.7,0L6.7,5.6C6.6,6,6.4,6.4,6.1,6.7
	C5.6,7.2,5,7.5,4.2,7.4L3.5,8.1c-0.5,0.5-0.5,1.3,0,1.7l4.6,4.5c0.3,0.3,0.7,0.5,1.2,0.5l10.9,0c0.6,0,1.1-0.5,1.1-1.1
	C21.3,13.2,20.9,12.8,20.3,12.8z"/>
<path class="st0" d="M2.9,6.3c0.4,0.4,0.9,0.5,1.4,0.5c0.5,0,1-0.2,1.4-0.6c0.8-0.8,0.7-2-0.1-2.8C5.3,3.1,4.8,2.9,4.3,2.9
	c-0.5,0-1,0.2-1.4,0.6C2.1,4.3,2.1,5.6,2.9,6.3z"/>
<path class="st0" d="M6.5,15.6H1.2c-0.4,0-0.7,0.3-0.7,0.6c0,0.4,0.3,0.7,0.6,0.7H3l-1,1.6c-0.1,0.2,0,0.4,0.2,0.4h1.4
	c0.1,0,0.2,0,0.2-0.1l1.2-1.8h14.9l1.2,1.8c0,0.1,0.1,0.1,0.2,0.1h1.4c0.2,0,0.3-0.2,0.2-0.4l-1-1.6h1.6c0.4,0,0.7-0.3,0.7-0.6
	c0-0.4-0.3-0.7-0.6-0.7h-14c-0.6,0-1.2-0.2-1.6-0.7L1.1,8.4c-0.3-0.3-0.7-0.3-0.9,0c-0.3,0.3-0.3,0.7,0,0.9L6.5,15.6z"/>
</svg>
