<svg width="92" height="92" viewBox="0 0 92 92" fill="none" xmlns="http://www.w3.org/2000/svg">
<g filter="url(#filter0_d_224_9114)">
<circle cx="46" cy="40" r="36" fill="#EDF7F3"/>
<g filter="url(#filter1_d_224_9114)">
<path fill-rule="evenodd" clip-rule="evenodd" d="M35.0312 22H56.9688C58.8325 22.0036 60.6188 22.7455 61.9366 24.0634C63.2545 25.3812 63.9964 27.1675 64 29.0312V50.9688C63.9964 52.8325 63.2545 54.6188 61.9366 55.9366C60.6188 57.2545 58.8325 57.9964 56.9688 58H35.0312C33.1675 57.9964 31.3812 57.2545 30.0634 55.9366C28.7455 54.6188 28.0036 52.8325 28 50.9688V29.0312C28.0036 27.1675 28.7455 25.3812 30.0634 24.0634C31.3812 22.7455 33.1675 22.0036 35.0312 22ZM35.4531 49.2286C35.4532 49.5782 35.5921 49.9135 35.8394 50.1607C36.0866 50.4079 36.4219 50.5468 36.7715 50.5469H43.6715C43.8457 50.5487 44.0186 50.5159 44.1802 50.4505C44.3417 50.385 44.4886 50.2882 44.6125 50.1656C44.7364 50.043 44.8347 49.897 44.9018 49.7362C44.969 49.5754 45.0035 49.4028 45.0035 49.2285C45.0035 49.0542 44.969 48.8817 44.9018 48.7208C44.8347 48.56 44.7364 48.414 44.6125 48.2914C44.4886 48.1688 44.3417 48.072 44.1802 48.0066C44.0186 47.9411 43.8457 47.9084 43.6715 47.9102H39.9544L44.8622 43.0023C45.1095 42.7551 45.2485 42.4197 45.2485 42.07C45.2485 41.7203 45.1096 41.3849 44.8624 41.1376C44.74 41.0152 44.5946 40.918 44.4346 40.8518C44.2747 40.7855 44.1032 40.7514 43.9301 40.7513C43.5803 40.7513 43.245 40.8902 42.9977 41.1374L38.0898 46.046V42.3285C38.0863 41.9812 37.9458 41.6494 37.6989 41.4051C37.4521 41.1608 37.1188 41.0237 36.7715 41.0237C36.4242 41.0237 36.0909 41.1608 35.844 41.4051C35.5972 41.6494 35.4567 41.9812 35.4531 42.3285V49.2286ZM56.5469 30.7716C56.5468 30.4219 56.4079 30.0866 56.1607 29.8394C55.9134 29.5922 55.5781 29.4532 55.2285 29.4531H48.3285C48.1543 29.4513 47.9814 29.4841 47.8198 29.5495C47.6583 29.615 47.5114 29.7118 47.3875 29.8344C47.2636 29.957 47.1653 30.103 47.0982 30.2638C47.031 30.4246 46.9965 30.5972 46.9965 30.7715C46.9965 30.9458 47.031 31.1183 47.0982 31.2792C47.1653 31.44 47.2636 31.586 47.3875 31.7086C47.5114 31.8312 47.6583 31.928 47.8198 31.9934C47.9814 32.0589 48.1543 32.0916 48.3285 32.0898H52.046L47.1374 36.9977C46.8901 37.245 46.7512 37.5804 46.7512 37.9301C46.7512 38.2798 46.8901 38.6153 47.1374 38.8626C47.3847 39.1099 47.7202 39.2488 48.0699 39.2488C48.4196 39.2488 48.755 39.1099 49.0023 38.8626L53.9102 33.954V37.6715C53.9137 38.0188 54.0542 38.3507 54.3011 38.595C54.5479 38.8393 54.8812 38.9763 55.2285 38.9763C55.5758 38.9763 55.9091 38.8393 56.156 38.595C56.4028 38.3507 56.5433 38.0188 56.5469 37.6715V30.7716Z" fill="#2D6851"/>
</g>
</g>
<defs>
<filter id="filter0_d_224_9114" x="0" y="0" width="92" height="92" filterUnits="userSpaceOnUse" color-interpolation-filters="sRGB">
<feFlood flood-opacity="0" result="BackgroundImageFix"/>
<feColorMatrix in="SourceAlpha" type="matrix" values="0 0 0 0 0 0 0 0 0 0 0 0 0 0 0 0 0 0 127 0" result="hardAlpha"/>
<feOffset dy="6"/>
<feGaussianBlur stdDeviation="5"/>
<feComposite in2="hardAlpha" operator="out"/>
<feColorMatrix type="matrix" values="0 0 0 0 0.10816 0 0 0 0 0.291667 0 0 0 0 0.22013 0 0 0 0.3 0"/>
<feBlend mode="normal" in2="BackgroundImageFix" result="effect1_dropShadow_224_9114"/>
<feBlend mode="normal" in="SourceGraphic" in2="effect1_dropShadow_224_9114" result="shape"/>
</filter>
<filter id="filter1_d_224_9114" x="18" y="18" width="56" height="56" filterUnits="userSpaceOnUse" color-interpolation-filters="sRGB">
<feFlood flood-opacity="0" result="BackgroundImageFix"/>
<feColorMatrix in="SourceAlpha" type="matrix" values="0 0 0 0 0 0 0 0 0 0 0 0 0 0 0 0 0 0 127 0" result="hardAlpha"/>
<feOffset dy="6"/>
<feGaussianBlur stdDeviation="5"/>
<feComposite in2="hardAlpha" operator="out"/>
<feColorMatrix type="matrix" values="0 0 0 0 0.10816 0 0 0 0 0.291667 0 0 0 0 0.22013 0 0 0 0.3 0"/>
<feBlend mode="normal" in2="BackgroundImageFix" result="effect1_dropShadow_224_9114"/>
<feBlend mode="normal" in="SourceGraphic" in2="effect1_dropShadow_224_9114" result="shape"/>
</filter>
</defs>
</svg>
