<svg width="24" height="24" viewBox="0 0 24 24" fill="none" xmlns="http://www.w3.org/2000/svg">
<path d="M23.6458 21.9457L20.2575 18.5694C22.0944 16.3001 22.9904 13.4126 22.7609 10.5021C22.5314 7.59164 21.1939 4.8802 19.0241 2.9269C16.8543 0.973591 14.0177 -0.0726457 11.0992 0.00392494C8.18067 0.0804956 5.40283 1.27404 3.33843 3.33843C1.27404 5.40283 0.0804956 8.18067 0.00392494 11.0992C-0.0726457 14.0177 0.973591 16.8543 2.9269 19.0241C4.8802 21.1939 7.59164 22.5314 10.5021 22.7609C13.4126 22.9904 16.3001 22.0944 18.5694 20.2575L21.9457 23.6458C22.057 23.7581 22.1894 23.8471 22.3353 23.9079C22.4812 23.9687 22.6377 24 22.7958 24C22.9538 24 23.1103 23.9687 23.2562 23.9079C23.4021 23.8471 23.5345 23.7581 23.6458 23.6458C23.7581 23.5345 23.8471 23.4021 23.9079 23.2562C23.9687 23.1103 24 22.9538 24 22.7958C24 22.6377 23.9687 22.4812 23.9079 22.3353C23.8471 22.1894 23.7581 22.057 23.6458 21.9457ZM2.44202 11.4216C2.44202 9.64562 2.96867 7.90951 3.95536 6.43282C4.94205 4.95613 6.34447 3.8052 7.98528 3.12555C9.62608 2.44591 11.4316 2.26808 13.1735 2.61456C14.9153 2.96104 16.5153 3.81627 17.7712 5.07208C19.027 6.3279 19.8822 7.92792 20.2287 9.66979C20.5752 11.4117 20.3973 13.2172 19.7177 14.858C19.038 16.4988 17.8871 17.9012 16.4104 18.8879C14.9337 19.8746 13.1976 20.4012 11.4216 20.4012C9.04008 20.4012 6.75609 19.4552 5.07208 17.7712C3.38808 16.0872 2.44202 13.8032 2.44202 11.4216Z" fill="white"/>
</svg>
