<?xml version="1.0" encoding="utf-8"?>
<!-- Generator: Adobe Illustrator 24.3.0, SVG Export Plug-In . SVG Version: 6.00 Build 0)  -->
<svg version="1.1" id="Layer_1" xmlns="http://www.w3.org/2000/svg" xmlns:xlink="http://www.w3.org/1999/xlink" x="0px" y="0px"
	 viewBox="0 0 24 22" style="enable-background:new 0 0 24 22;" xml:space="preserve">
<style type="text/css">
	.st0{fill:#2D6851;}
</style>
<g>
	<path class="st0" d="M6.2,10.2v1.2h11.7v-1.2c0-1.9,1.6-3.5,3.5-3.5c0-0.4,0-0.7-0.1-0.9c-0.4-1.9-1.8-3.3-3.7-3.7
		C17.1,2,16.6,2,15.5,2h-7C7.4,2,6.9,2,6.4,2.1C4.6,2.5,3.1,3.9,2.8,5.8c0,0.2-0.1,0.5-0.1,0.9C4.6,6.7,6.2,8.3,6.2,10.2z"/>
	<path class="st0" d="M19.5,17.2h-15c-0.3,0-0.6,0-0.9-0.1v1.3c0,0.5-0.4,0.9-0.9,0.9c-0.5,0-0.9-0.4-0.9-0.9v-2.2
		c-0.9-0.8-1.5-1.9-1.5-3.2v-2.9c0-1.3,1-2.3,2.3-2.3C4,7.9,5,8.9,5,10.2v1.4c0,0.5,0.4,0.9,0.9,0.9h12.1c0.5,0,0.9-0.4,0.9-0.9
		v-1.4c0-1.3,1-2.3,2.3-2.3s2.3,1,2.3,2.3V13c0,1.3-0.6,2.4-1.5,3.2v2.2c0,0.5-0.4,0.9-0.9,0.9s-0.9-0.4-0.9-0.9v-1.3
		C20.2,17.1,19.8,17.2,19.5,17.2z"/>
</g>
</svg>
