<svg width="38" height="24" viewBox="0 0 38 24" fill="none" xmlns="http://www.w3.org/2000/svg">
<path d="M12.418 23.0426C12.0291 22.6538 11.8346 22.1885 11.8346 21.6468C11.8346 21.1051 12.0291 20.6399 12.418 20.251L13.4596 19.2093C9.3763 18.6815 6.26519 17.6051 4.1263 15.9801C1.98741 14.3551 0.917969 12.3621 0.917969 10.001C0.917969 6.91764 2.64714 4.52181 6.10547 2.81348C9.5638 1.10514 13.8624 0.250977 19.0013 0.250977C24.1402 0.250977 28.4388 1.0982 31.8971 2.79264C35.3555 4.48709 37.0846 6.88987 37.0846 10.001C37.0846 11.8343 36.3832 13.4663 34.9805 14.8968C33.5777 16.3274 31.6957 17.4454 29.3346 18.251C28.3624 18.5843 27.5082 18.5288 26.7721 18.0843C26.036 17.6399 25.668 16.8899 25.668 15.8343C25.668 15.3065 25.8555 14.7926 26.2305 14.2926C26.6055 13.7926 27.0707 13.4593 27.6263 13.2926C29.0707 12.8204 30.1332 12.2857 30.8138 11.6885C31.4944 11.0913 31.8346 10.5288 31.8346 10.001C31.8346 9.05653 30.7582 8.07042 28.6055 7.04264C26.4527 6.01487 23.2513 5.50098 19.0013 5.50098C14.7513 5.50098 11.5499 6.01487 9.39714 7.04264C7.24436 8.07042 6.16797 9.05653 6.16797 10.001C6.16797 10.6676 6.70964 11.3829 7.79297 12.1468C8.8763 12.9107 10.7235 13.5288 13.3346 14.001L12.418 13.0843C12.0291 12.6954 11.8346 12.2301 11.8346 11.6885C11.8346 11.1468 12.0291 10.6815 12.418 10.2926C12.8069 9.90375 13.2721 9.70931 13.8138 9.70931C14.3555 9.70931 14.8207 9.90375 15.2096 10.2926L19.7096 14.8343C19.9874 15.1121 20.1819 15.4038 20.293 15.7093C20.4041 16.0149 20.4596 16.3343 20.4596 16.6676C20.4596 17.001 20.4041 17.3204 20.293 17.626C20.1819 17.9315 19.9874 18.2232 19.7096 18.501L15.2096 23.0426C14.8207 23.4315 14.3555 23.626 13.8138 23.626C13.2721 23.626 12.8069 23.4315 12.418 23.0426Z" fill="#2D6851"/>
</svg>
