<?xml version="1.0" encoding="utf-8"?>
<!-- Generator: Adobe Illustrator 24.3.0, SVG Export Plug-In . SVG Version: 6.00 Build 0)  -->
<svg version="1.1" id="Layer_1" xmlns="http://www.w3.org/2000/svg" xmlns:xlink="http://www.w3.org/1999/xlink" x="0px" y="0px"
	 viewBox="0 0 24 22" style="enable-background:new 0 0 24 22;" xml:space="preserve">
<style type="text/css">
	.st0{fill:#2D6851;}
</style>
<path class="st0" d="M16,6.8c0-0.5-0.3-1-0.7-1.3c-0.1-0.1-0.3-0.2-0.4-0.2l-1.9-0.6c-0.3,0.4-0.8,0.7-1.4,0.7H9.7
	C9.5,5.4,9.2,5.4,9,5.6c-0.3,0.2-0.6,0.6-0.6,1v1.2c0,1.1,0.4,2.1,1,2.9c0.6-0.8,1.6-1.3,2.7-1.3s2.1,0.5,2.7,1.3
	c0.7-0.8,1-1.8,1-2.9V6.8z M9.8,8.3L9.4,7.7l0.7-0.4L9.4,6.8l0.4-0.6l1.6,1.1L9.8,8.3z M12.6,8.8h-0.8V7.2h0.8V8.8z M15.1,7.7
	l-0.4,0.6l-1.6-1.1l1.6-1.1l0.4,0.6l-0.7,0.4L15.1,7.7z"/>
<path class="st0" d="M8.1,16.1l0.6-3.5L6.6,13c-2,0.3-3.4,2.1-3.4,4.1v1.1h2.2v-1.5h0.8V18L8.1,16.1z"/>
<path class="st0" d="M4.8,5.4h0.3c0.4,0,0.8-0.1,1.1-0.3c0-0.1,0-0.2,0-0.3c0-0.2,0-0.4,0-0.5C5.9,4.5,5.5,4.6,5.1,4.6H4.8
	C4.3,4.6,4,4.3,4,3.8c0-0.2,0.1-0.4,0.2-0.6C4.5,2.9,4.7,2.5,4.7,2c0-0.6,0.5-1.1,1.1-1.1S7,1.4,7,2v0c0.2-0.3,0.4-0.6,0.6-0.8
	c-0.3-0.7-1-1.1-1.7-1.1C4.8,0.1,4,1,4,2c0,0.3-0.1,0.5-0.3,0.7C3.4,3,3.2,3.4,3.2,3.8C3.2,4.7,3.9,5.4,4.8,5.4z"/>
<path class="st0" d="M7,7.6C7,8,7.3,8.4,7.7,8.4h0c0-0.2,0-0.3,0-0.5v-1C7.3,6.9,7,7.2,7,7.6z"/>
<path class="st0" d="M16.7,6.9v1c0,0.2,0,0.4,0,0.5h0c0.4,0,0.8-0.3,0.8-0.8S17.1,6.9,16.7,6.9z"/>
<path class="st0" d="M18.2,5c0-0.7,0.3-1.3,0.7-1.8c0-0.1,0-0.1,0-0.1h-0.3c-0.2,0-0.4,0.1-0.6,0.2c0.1,0.5,0.2,1,0.2,1.5
	C18.2,4.9,18.2,5,18.2,5C18.2,5,18.2,5,18.2,5z"/>
<path class="st0" d="M18.6,2.4h0.3c0.4,0,0.8,0.4,0.8,0.8c0,0.2-0.1,0.4-0.2,0.6C19.2,4.1,19,4.5,19,5c0,0.6-0.4,1-0.9,1.1l-0.2,0.6
	c0,0,0.1,0.1,0.1,0.2C19,6.8,19.7,6,19.7,5c0-0.3,0.1-0.5,0.3-0.7c0.3-0.3,0.5-0.7,0.5-1.1c0-0.9-0.7-1.5-1.5-1.5h-0.3
	c-0.4,0-0.8,0.1-1.2,0.3c0.1,0.2,0.3,0.4,0.4,0.7C18,2.5,18.3,2.4,18.6,2.4z"/>
<path class="st0" d="M13.8,15.2l0.2,1.9c0.4-0.3,0.8-0.5,1.3-0.5c0.2,0,0.3-0.1,0.3-0.3c0,0,0,0,0-0.1l-0.7-3.7
	c-0.2-1.3-1.4-2.3-2.7-2.3c-1.3,0-2.5,1-2.7,2.3l-0.5,2.6l0.5-0.5v-0.1c0-0.4,0.2-0.9,0.5-1.2c0.3-0.3,0.7-0.5,1.2-0.5h0.1l0.3-0.3
	c0.3-0.3,0.7-0.5,1.2-0.5c0.9,0,1.7,0.8,1.7,1.7c0,0.5-0.2,0.9-0.5,1.2L13.8,15.2z"/>
<path class="st0" d="M7.1,5.9l0.1,0.3c0.2-0.1,0.3-0.1,0.5-0.1h0.1C7.9,5.7,8.2,5.2,8.6,5c0.3-0.2,0.7-0.3,1.1-0.3h1.8
	c0.6,0,1.1-0.5,1.1-1.1V1.6h0.8v1.9c0,0.2,0,0.4-0.1,0.5L15,4.6c0.2,0.1,0.5,0.2,0.7,0.3c0.5,0.3,0.8,0.8,0.9,1.3h0.1
	c0.2,0,0.4,0,0.5,0.1l0.1-0.3c0.1-0.4,0.1-0.7,0.1-1.1c0-2.6-2.1-4.6-4.6-4.6h-1.2C9.1,0.1,7,2.2,7,4.8C7,5.1,7,5.5,7.1,5.9z"/>
<path class="st0" d="M5.5,2c0,0.7-0.3,1.3-0.7,1.8c0,0.1,0,0.1,0,0.1h0.3c0.6,0,1.1-0.5,1.1-1.1V2c0-0.2-0.2-0.4-0.4-0.4
	C5.6,1.6,5.5,1.8,5.5,2z"/>
<path class="st0" d="M11.3,18.4c0.2,0.3,0.6,0.5,0.9,0.5c0.5,0,0.9-0.3,1.1-0.8l0,0l-0.2-2.2L11,18C11.1,18.1,11.3,18.2,11.3,18.4z"
	/>
<path class="st0" d="M20.5,12.9h-0.3c0,0,0,0,0,0c0.2,0.2,0.4,0.4,0.5,0.7c0.4,0.4,0.7,0.9,0.9,1.4c0-0.1,0.1-0.1,0.1-0.2V14
	C21.6,13.4,21.1,12.9,20.5,12.9z"/>
<path class="st0" d="M20.5,11.4h-0.3c-0.7,0-1.2,0.4-1.5,1c0.2,0.1,0.5,0.2,0.7,0.3c0.1-0.3,0.4-0.6,0.8-0.6h0.3
	c1,0,1.9,0.8,1.9,1.9v0.8c0,0.4-0.2,0.8-0.6,1c0.1,0.2,0.1,0.5,0.1,0.8c0.7-0.3,1.2-1,1.2-1.7V14C23.1,12.6,21.9,11.4,20.5,11.4z"/>
<path class="st0" d="M19,18.9h2.2v3H19V18.9z"/>
<path class="st0" d="M17.8,13l-2.1-0.4l0.6,3.5c0,0.1,0,0.1,0,0.2c0,0.6-0.5,1.1-1.1,1.1c-0.5,0-1,0.3-1.2,0.9l0,0.1
	c-0.3,0.8-1,1.3-1.8,1.3c-0.6,0-1.2-0.3-1.6-0.8c-0.1-0.1-0.2-0.2-0.3-0.2l-3.3,3.3c0,0,0,0-0.1,0.1h11.1v-5.2H19v1.5h2.2V17
	C21.2,15,19.8,13.3,17.8,13z"/>
<path class="st0" d="M13.7,13.8c0-0.5-0.4-1-1-1c-0.3,0-0.5,0.1-0.7,0.3l-0.5,0.5h-0.4c-0.2,0-0.5,0.1-0.6,0.3
	c-0.2,0.2-0.3,0.4-0.3,0.6v0.4L5,20.3l-0.5-0.5l0.9-0.9H3.2v1c0,1.1,0.9,2,2,2c0.5,0,1-0.2,1.4-0.6l6.8-6.8
	C13.6,14.3,13.7,14.1,13.7,13.8z"/>
<path class="st0" d="M2.1,14.3c0-0.2,0.1-0.4,0.2-0.6c0.3-0.3,0.5-0.8,0.5-1.2c0-0.6,0.5-1.1,1.1-1.1s1.1,0.5,1.1,1.1v0.2
	c0.2-0.1,0.5-0.2,0.7-0.3c-0.1-1-0.9-1.8-1.9-1.8c-1,0-1.9,0.8-1.9,1.9c0,0.3-0.1,0.5-0.3,0.7c-0.3,0.3-0.5,0.7-0.5,1.1
	c0,0.8,0.6,1.4,1.3,1.5c0.1-0.2,0.1-0.5,0.2-0.7C2.4,15.1,2.1,14.8,2.1,14.3z"/>
<path class="st0" d="M3.3,14.4c0.3-0.5,0.7-0.9,1.1-1.2v-0.7c0-0.2-0.2-0.4-0.4-0.4c-0.2,0-0.4,0.2-0.4,0.4c0,0.7-0.3,1.3-0.7,1.8
	c0,0.1,0,0.1,0,0.1L3.3,14.4C3.2,14.4,3.3,14.4,3.3,14.4z"/>
<path class="st0" d="M22.4,6.1c-0.8,0-1.5,0.7-1.5,1.5h0.8c0-0.4,0.3-0.8,0.8-0.8s0.8,0.3,0.8,0.8s-0.3,0.8-0.8,0.8v0.8
	c0.8,0,1.5-0.7,1.5-1.5S23.2,6.1,22.4,6.1z"/>
<path class="st0" d="M1.7,8.4c0.6,0,1.1-0.5,1.1-1.1S2.4,6.1,1.7,6.1S0.6,6.6,0.6,7.2S1.1,8.4,1.7,8.4z"/>
</svg>
