<svg width="224" height="67" viewBox="0 0 224 67" fill="none" xmlns="http://www.w3.org/2000/svg">
<path fill-rule="evenodd" clip-rule="evenodd" d="M115.407 41.2885C112.923 43.7589 110.192 45.9706 107.256 47.8889C100.454 52.2532 92.9173 55.3628 85.0084 57.069C74.2182 59.4937 63.0836 60.0028 52.1176 58.5729C41.1825 57.2969 30.7564 53.2664 21.8249 46.8625C18.8887 44.6438 16.1388 42.191 13.6024 39.5283C11.0258 36.8751 8.72335 33.9712 6.72962 30.8601L2.94937 24.1575L1.51909 21.0061L1.39798 21.0132C1.44353 21.0036 1.48536 20.9812 1.51849 20.9486C1.55161 20.916 1.57463 20.8747 1.58479 20.8295C1.59495 20.7842 1.59183 20.7371 1.57579 20.6936C1.55976 20.6501 1.5315 20.6121 1.49437 20.5842L0.949244 20.8731C0.753521 21.4131 0.703784 21.9947 0.805016 22.5597C0.949501 23.3115 1.14518 24.0527 1.39071 24.778C1.70898 25.8025 2.05665 26.8101 2.46487 27.8143C3.09579 29.3206 3.80573 30.7929 4.59176 32.2251C6.47179 35.6108 8.73647 38.7703 11.3413 41.6412C13.9713 44.4734 16.8638 47.0524 19.9804 49.3442C29.34 56.0126 40.2565 60.1915 51.6958 61.4852C63.0067 62.9064 74.482 62.3261 85.5921 59.7712C93.8265 57.9591 101.671 54.6991 108.756 50.1444C111.825 48.1525 114.687 45.8629 117.303 43.3091C132.019 58.2906 153.413 60.4537 173.216 53.3671C183.673 49.6306 193.177 43.6489 201.052 35.8469C208.833 28.0522 214.754 18.6169 218.377 8.23905C218.431 8.08688 218.425 7.91977 218.36 7.77186C218.295 7.62395 218.176 7.5064 218.026 7.44321C217.874 7.38515 217.704 7.38924 217.555 7.45459C217.405 7.51995 217.287 7.64132 217.227 7.79244C212.745 17.3896 206.317 25.9608 198.346 32.9667C190.635 40.0667 181.587 45.5759 171.725 49.176C153.488 55.5208 133.882 53.7971 120.315 40.0182C122.472 37.5288 124.35 34.8131 125.917 31.9193C128.095 27.8761 130.066 21.8494 129.583 16.7074C129.46 14.7779 128.832 12.9141 127.763 11.3008C126.693 9.68752 125.218 8.38076 123.484 7.51007C121.765 6.57647 119.825 6.12051 117.867 6.19C115.909 6.25949 114.006 6.85187 112.357 7.90503C110.745 8.92609 109.37 10.2775 108.323 11.8691C107.277 13.4607 106.584 15.2559 106.29 17.1348C105.772 20.8468 106.176 24.628 107.467 28.1475C108.703 31.5612 110.426 34.7799 112.584 37.7046C113.448 38.9693 114.415 40.1674 115.407 41.2885ZM118.46 37.9197C120.352 35.6387 122.004 33.1711 123.391 30.5555C125.306 26.9359 127.136 21.6129 126.564 17.0505C126.454 15.6423 125.974 14.288 125.172 13.1226C124.371 11.9572 123.276 11.0215 121.998 10.4091C120.795 9.79633 119.449 9.51491 118.099 9.59398C116.75 9.67305 115.446 10.1097 114.323 10.8588C113.181 11.628 112.219 12.6324 111.501 13.8039C110.783 14.9754 110.327 16.2866 110.163 17.6487C109.853 20.706 110.289 23.7923 111.435 26.645C112.602 29.6503 114.194 32.474 116.164 35.0306C116.908 36.0604 117.679 37.0281 118.46 37.9197Z" fill="#2D6851"/>
<path fill-rule="evenodd" clip-rule="evenodd" d="M216.169 7.8698L215.883 9.21693C215.199 13.611 214.454 18.0087 214.076 22.4604C213.9 24.3756 213.964 26.2465 213.804 28.1759C213.766 28.3385 213.794 28.5093 213.882 28.6514C213.97 28.7934 214.111 28.8951 214.274 28.9345C214.354 28.9556 214.437 28.9605 214.519 28.949C214.601 28.9375 214.68 28.9099 214.751 28.8677C214.822 28.8255 214.884 28.7696 214.933 28.7033C214.982 28.637 215.017 28.5617 215.037 28.4816C215.864 26.7243 216.575 24.9151 217.165 23.0656C218.435 18.8035 218.903 14.3464 219.895 10.025C219.88 9.76886 220.736 6.22644 220.941 4.80841C221.063 4.21064 220.969 3.58941 220.677 3.05367C220.385 2.51793 219.912 2.10189 219.342 1.87852C218.316 1.96766 217.335 2.33358 216.502 2.93686C213.342 4.99669 205.79 10.3979 204.822 10.9989L200.964 13.5985C199.038 14.694 199.29 16.3876 200.255 16.5276C201.002 16.5672 201.741 16.3647 202.363 15.9505L206.519 13.7719C207.314 13.3473 212.459 10.1432 216.169 7.8698Z" fill="#2D6851"/>
</svg>
