<svg width="117" height="14" viewBox="0 0 117 14" fill="none" xmlns="http://www.w3.org/2000/svg">
<path d="M0.88 4.408C0.933333 3.34133 1.30667 2.52 2 1.944C2.704 1.35733 3.62667 1.064 4.768 1.064C5.54667 1.064 6.21333 1.20267 6.768 1.48C7.32267 1.74667 7.73867 2.11467 8.016 2.584C8.304 3.04267 8.448 3.56533 8.448 4.152C8.448 4.824 8.272 5.39467 7.92 5.864C7.57867 6.32267 7.168 6.632 6.688 6.792V6.856C7.30667 7.048 7.78667 7.38933 8.128 7.88C8.48 8.37067 8.656 9 8.656 9.768C8.656 10.408 8.50667 10.9787 8.208 11.48C7.92 11.9813 7.488 12.376 6.912 12.664C6.34667 12.9413 5.664 13.08 4.864 13.08C3.65867 13.08 2.67733 12.776 1.92 12.168C1.16267 11.56 0.762667 10.664 0.72 9.48H2.896C2.91733 10.0027 3.09333 10.424 3.424 10.744C3.76533 11.0533 4.22933 11.208 4.816 11.208C5.36 11.208 5.776 11.0587 6.064 10.76C6.36267 10.4507 6.512 10.056 6.512 9.576C6.512 8.936 6.30933 8.47733 5.904 8.2C5.49867 7.92267 4.86933 7.784 4.016 7.784H3.552V5.944H4.016C5.53067 5.944 6.288 5.43733 6.288 4.424C6.288 3.96533 6.14933 3.608 5.872 3.352C5.60533 3.096 5.216 2.968 4.704 2.968C4.20267 2.968 3.81333 3.10667 3.536 3.384C3.26933 3.65067 3.11467 3.992 3.072 4.408H0.88ZM20.8306 7.272C21.46 7.38933 21.9773 7.704 22.3826 8.216C22.788 8.728 22.9906 9.31467 22.9906 9.976C22.9906 10.5733 22.8413 11.1013 22.5426 11.56C22.2546 12.008 21.8333 12.36 21.2786 12.616C20.724 12.872 20.068 13 19.3106 13H14.4946V1.832H19.1026C19.86 1.832 20.5106 1.95467 21.0546 2.2C21.6093 2.44533 22.0253 2.78667 22.3026 3.224C22.5906 3.66133 22.7346 4.15733 22.7346 4.712C22.7346 5.36267 22.5586 5.90667 22.2066 6.344C21.8653 6.78133 21.4066 7.09067 20.8306 7.272ZM16.7346 6.44H18.7826C19.316 6.44 19.7266 6.32267 20.0146 6.088C20.3026 5.84267 20.4466 5.496 20.4466 5.048C20.4466 4.6 20.3026 4.25333 20.0146 4.008C19.7266 3.76267 19.316 3.64 18.7826 3.64H16.7346V6.44ZM18.9906 11.176C19.5346 11.176 19.956 11.048 20.2546 10.792C20.564 10.536 20.7186 10.1733 20.7186 9.704C20.7186 9.224 20.5586 8.85067 20.2386 8.584C19.9186 8.30667 19.4866 8.168 18.9426 8.168H16.7346V11.176H18.9906ZM24.1999 8.536C24.1999 7.64 24.3759 6.84533 24.7279 6.152C25.0905 5.45867 25.5759 4.92533 26.1839 4.552C26.8025 4.17867 27.4905 3.992 28.2479 3.992C28.9092 3.992 29.4852 4.12533 29.9759 4.392C30.4772 4.65867 30.8772 4.99467 31.1759 5.4V4.136H33.4319V13H31.1759V11.704C30.8879 12.12 30.4879 12.4667 29.9759 12.744C29.4745 13.0107 28.8932 13.144 28.2319 13.144C27.4852 13.144 26.8025 12.952 26.1839 12.568C25.5759 12.184 25.0905 11.6453 24.7279 10.952C24.3759 10.248 24.1999 9.44267 24.1999 8.536ZM31.1759 8.568C31.1759 8.024 31.0692 7.56 30.8559 7.176C30.6425 6.78133 30.3545 6.48267 29.9919 6.28C29.6292 6.06667 29.2399 5.96 28.8239 5.96C28.4079 5.96 28.0239 6.06133 27.6719 6.264C27.3199 6.46667 27.0319 6.76533 26.8079 7.16C26.5945 7.544 26.4879 8.00267 26.4879 8.536C26.4879 9.06933 26.5945 9.53867 26.8079 9.944C27.0319 10.3387 27.3199 10.6427 27.6719 10.856C28.0345 11.0693 28.4185 11.176 28.8239 11.176C29.2399 11.176 29.6292 11.0747 29.9919 10.872C30.3545 10.6587 30.6425 10.36 30.8559 9.976C31.0692 9.58133 31.1759 9.112 31.1759 8.568ZM35.0436 8.536C35.0436 7.64 35.2196 6.84533 35.5716 6.152C35.9343 5.45867 36.425 4.92533 37.0436 4.552C37.6623 4.17867 38.3503 3.992 39.1076 3.992C39.6836 3.992 40.233 4.12 40.7556 4.376C41.2783 4.62133 41.6943 4.952 42.0036 5.368V1.16H44.2756V13H42.0036V11.688C41.7263 12.1253 41.337 12.4773 40.8356 12.744C40.3343 13.0107 39.753 13.144 39.0916 13.144C38.345 13.144 37.6623 12.952 37.0436 12.568C36.425 12.184 35.9343 11.6453 35.5716 10.952C35.2196 10.248 35.0436 9.44267 35.0436 8.536ZM42.0196 8.568C42.0196 8.024 41.913 7.56 41.6996 7.176C41.4863 6.78133 41.1983 6.48267 40.8356 6.28C40.473 6.06667 40.0836 5.96 39.6676 5.96C39.2516 5.96 38.8676 6.06133 38.5156 6.264C38.1636 6.46667 37.8756 6.76533 37.6516 7.16C37.4383 7.544 37.3316 8.00267 37.3316 8.536C37.3316 9.06933 37.4383 9.53867 37.6516 9.944C37.8756 10.3387 38.1636 10.6427 38.5156 10.856C38.8783 11.0693 39.2623 11.176 39.6676 11.176C40.0836 11.176 40.473 11.0747 40.8356 10.872C41.1983 10.6587 41.4863 10.36 41.6996 9.976C41.913 9.58133 42.0196 9.112 42.0196 8.568ZM54.7034 8.376C54.7034 8.696 54.682 8.984 54.6394 9.24H48.1594C48.2127 9.88 48.4367 10.3813 48.8314 10.744C49.226 11.1067 49.7114 11.288 50.2874 11.288C51.1194 11.288 51.7114 10.9307 52.0634 10.216H54.4794C54.2234 11.0693 53.7327 11.7733 53.0074 12.328C52.282 12.872 51.3914 13.144 50.3354 13.144C49.482 13.144 48.714 12.9573 48.0314 12.584C47.3594 12.2 46.8314 11.6613 46.4474 10.968C46.074 10.2747 45.8874 9.47467 45.8874 8.568C45.8874 7.65067 46.074 6.84533 46.4474 6.152C46.8207 5.45867 47.3434 4.92533 48.0154 4.552C48.6874 4.17867 49.4607 3.992 50.3354 3.992C51.178 3.992 51.93 4.17333 52.5914 4.536C53.2634 4.89867 53.7807 5.416 54.1434 6.088C54.5167 6.74933 54.7034 7.512 54.7034 8.376ZM52.3834 7.736C52.3727 7.16 52.1647 6.70133 51.7594 6.36C51.354 6.008 50.858 5.832 50.2714 5.832C49.7167 5.832 49.2474 6.00267 48.8634 6.344C48.49 6.67467 48.2607 7.13867 48.1754 7.736H52.3834ZM58.3864 11.16H62.3384V13H55.8424V11.192L59.7144 5.976H55.8584V4.136H62.2904V5.944L58.3864 11.16ZM65.2088 3.08C64.8141 3.08 64.4834 2.95733 64.2168 2.712C63.9608 2.456 63.8328 2.14133 63.8328 1.768C63.8328 1.39467 63.9608 1.08533 64.2168 0.839999C64.4834 0.583999 64.8141 0.455999 65.2088 0.455999C65.6034 0.455999 65.9288 0.583999 66.1848 0.839999C66.4514 1.08533 66.5848 1.39467 66.5848 1.768C66.5848 2.14133 66.4514 2.456 66.1848 2.712C65.9288 2.95733 65.6034 3.08 65.2088 3.08ZM66.3128 4.136V13H64.0728V4.136H66.3128ZM79.5339 4.008C80.6219 4.008 81.4965 4.344 82.1579 5.016C82.8299 5.67733 83.1659 6.60533 83.1659 7.8V13H80.9259V8.104C80.9259 7.41067 80.7499 6.88267 80.3979 6.52C80.0459 6.14667 79.5659 5.96 78.9579 5.96C78.3499 5.96 77.8645 6.14667 77.5019 6.52C77.1499 6.88267 76.9739 7.41067 76.9739 8.104V13H74.7339V8.104C74.7339 7.41067 74.5579 6.88267 74.2059 6.52C73.8539 6.14667 73.3739 5.96 72.7659 5.96C72.1472 5.96 71.6565 6.14667 71.2939 6.52C70.9419 6.88267 70.7659 7.41067 70.7659 8.104V13H68.5259V4.136H70.7659V5.208C71.0539 4.83467 71.4219 4.54133 71.8699 4.328C72.3285 4.11467 72.8299 4.008 73.3739 4.008C74.0672 4.008 74.6859 4.15733 75.2299 4.456C75.7739 4.744 76.1952 5.16 76.4939 5.704C76.7819 5.192 77.1979 4.78133 77.7419 4.472C78.2965 4.16267 78.8939 4.008 79.5339 4.008ZM96.2995 4.008C97.3875 4.008 98.2622 4.344 98.9235 5.016C99.5955 5.67733 99.9315 6.60533 99.9315 7.8V13H97.6915V8.104C97.6915 7.41067 97.5155 6.88267 97.1635 6.52C96.8115 6.14667 96.3315 5.96 95.7235 5.96C95.1155 5.96 94.6302 6.14667 94.2675 6.52C93.9155 6.88267 93.7395 7.41067 93.7395 8.104V13H91.4995V8.104C91.4995 7.41067 91.3235 6.88267 90.9715 6.52C90.6195 6.14667 90.1395 5.96 89.5315 5.96C88.9128 5.96 88.4222 6.14667 88.0595 6.52C87.7075 6.88267 87.5315 7.41067 87.5315 8.104V13H85.2915V4.136H87.5315V5.208C87.8195 4.83467 88.1875 4.54133 88.6355 4.328C89.0942 4.11467 89.5955 4.008 90.1395 4.008C90.8328 4.008 91.4515 4.15733 91.9955 4.456C92.5395 4.744 92.9608 5.16 93.2595 5.704C93.5475 5.192 93.9635 4.78133 94.5075 4.472C95.0622 4.16267 95.6595 4.008 96.2995 4.008ZM110.297 8.376C110.297 8.696 110.276 8.984 110.233 9.24H103.753C103.806 9.88 104.03 10.3813 104.425 10.744C104.82 11.1067 105.305 11.288 105.881 11.288C106.713 11.288 107.305 10.9307 107.657 10.216H110.073C109.817 11.0693 109.326 11.7733 108.601 12.328C107.876 12.872 106.985 13.144 105.929 13.144C105.076 13.144 104.308 12.9573 103.625 12.584C102.953 12.2 102.425 11.6613 102.041 10.968C101.668 10.2747 101.481 9.47467 101.481 8.568C101.481 7.65067 101.668 6.84533 102.041 6.152C102.414 5.45867 102.937 4.92533 103.609 4.552C104.281 4.17867 105.054 3.992 105.929 3.992C106.772 3.992 107.524 4.17333 108.185 4.536C108.857 4.89867 109.374 5.416 109.737 6.088C110.11 6.74933 110.297 7.512 110.297 8.376ZM107.977 7.736C107.966 7.16 107.758 6.70133 107.353 6.36C106.948 6.008 106.452 5.832 105.865 5.832C105.31 5.832 104.841 6.00267 104.457 6.344C104.084 6.67467 103.854 7.13867 103.769 7.736H107.977ZM114.172 5.512C114.46 5.04267 114.833 4.67467 115.292 4.408C115.761 4.14133 116.295 4.008 116.892 4.008V6.36H116.3C115.596 6.36 115.063 6.52533 114.7 6.856C114.348 7.18667 114.172 7.76267 114.172 8.584V13H111.932V4.136H114.172V5.512Z" fill="#343635"/>
</svg>
