<svg width="16" height="13" viewBox="0 0 16 13" fill="none" xmlns="http://www.w3.org/2000/svg">
<path d="M17.1586 0.206055H0V9.49375L1.77633 10.9446V9.73414H17.1586V0.206055ZM12.802 1.59898C13.1255 1.59898 13.3879 1.86133 13.3879 2.18492C13.3879 2.50855 13.1255 2.77086 12.802 2.77086C12.4784 2.77086 12.216 2.50852 12.216 2.18492C12.216 1.86133 12.4783 1.59898 12.802 1.59898ZM1.57184 1.94094H6.85797V3.11281H1.57184V1.94094ZM8.65879 8.29824H1.57184V7.12637H8.65879V8.29824ZM8.65879 5.70551H1.57184V4.53363H8.65879V5.70551ZM14.523 8.29824H14.0224C13.0264 8.29824 12.2162 7.48801 12.2162 6.49207V5.00723H11.5023V3.83535H13.3881V6.49207C13.3881 6.84184 13.6726 7.12637 14.0224 7.12637H14.523V8.29824Z" fill="white"/>
<path d="M18.3313 3.54297V10.9059H6.07422V12.5873H18.2465V13.7934L20.0008 12.3484V3.54297H18.3313Z" fill="white"/>
</svg>
