<svg width="32" height="36" viewBox="0 0 32 36" fill="none" xmlns="http://www.w3.org/2000/svg">
<path d="M4.45577 35.005C3.40624 35.005 2.51191 34.6355 1.77277 33.8963C1.03363 33.1572 0.664062 32.2629 0.664062 31.2134V8.11918C0.664062 7.06965 1.03363 6.17532 1.77277 5.43618C2.51191 4.69704 3.40624 4.32747 4.45577 4.32747H6.00285V2.77043C6.00285 2.27163 6.17587 1.85088 6.5219 1.50818C6.8679 1.16549 7.2903 0.994141 7.7891 0.994141C8.28788 0.994141 8.70862 1.16549 9.05131 1.50818C9.39401 1.85088 9.56535 2.27163 9.56535 2.77043V4.32747H22.4404V2.77043C22.4404 2.27163 22.6134 1.85088 22.9594 1.50818C23.3054 1.16549 23.7278 0.994141 24.2266 0.994141C24.7254 0.994141 25.1461 1.16549 25.4888 1.50818C25.8315 1.85088 26.0029 2.27163 26.0029 2.77043V4.32747H27.5499C28.5995 4.32747 29.4938 4.69704 30.2329 5.43618C30.9721 6.17532 31.3416 7.06965 31.3416 8.11918V31.2134C31.3416 32.2629 30.9721 33.1572 30.2329 33.8963C29.4938 34.6355 28.5995 35.005 27.5499 35.005H4.45577ZM4.45577 31.2134H27.5499V14.6663H4.45577V31.2134ZM16.0029 21.4126C15.508 21.4126 15.0933 21.2453 14.7586 20.9106C14.4238 20.5758 14.2565 20.1611 14.2565 19.6663C14.2565 19.1715 14.4238 18.7567 14.7586 18.422C15.0933 18.0873 15.508 17.9199 16.0029 17.9199C16.4977 17.9199 16.9124 18.0873 17.2471 18.422C17.5819 18.7567 17.7492 19.1715 17.7492 19.6663C17.7492 20.1611 17.5819 20.5758 17.2471 20.9106C16.9124 21.2453 16.4977 21.4126 16.0029 21.4126ZM9.33619 21.4126C8.84138 21.4126 8.42662 21.2453 8.0919 20.9106C7.75717 20.5758 7.58981 20.1611 7.58981 19.6663C7.58981 19.1715 7.75717 18.7567 8.0919 18.422C8.42662 18.0873 8.84138 17.9199 9.33619 17.9199C9.83099 17.9199 10.2458 18.0873 10.5805 18.422C10.9152 18.7567 11.0826 19.1715 11.0826 19.6663C11.0826 20.1611 10.9152 20.5758 10.5805 20.9106C10.2458 21.2453 9.83099 21.4126 9.33619 21.4126ZM22.6695 21.4126C22.184 21.4126 21.7716 21.2453 21.4322 20.9106C21.0928 20.5758 20.9231 20.1611 20.9231 19.6663C20.9231 19.1715 21.0928 18.7567 21.4322 18.422C21.7716 18.0873 22.1857 17.9199 22.6745 17.9199C23.1633 17.9199 23.5758 18.0873 23.9118 18.422C24.2479 18.7567 24.4159 19.1715 24.4159 19.6663C24.4159 20.1611 24.2485 20.5758 23.9138 20.9106C23.5791 21.2453 23.1643 21.4126 22.6695 21.4126ZM16.0029 28.0793C15.508 28.0793 15.0933 27.9096 14.7586 27.5703C14.4238 27.2309 14.2565 26.8168 14.2565 26.3279C14.2565 25.8391 14.4238 25.4267 14.7586 25.0906C15.0933 24.7546 15.508 24.5866 16.0029 24.5866C16.4977 24.5866 16.9124 24.7539 17.2471 25.0886C17.5819 25.4234 17.7492 25.8381 17.7492 26.3329C17.7492 26.8184 17.5819 27.2309 17.2471 27.5703C16.9124 27.9096 16.4977 28.0793 16.0029 28.0793ZM9.33619 28.0793C8.84138 28.0793 8.42662 27.9096 8.0919 27.5703C7.75717 27.2309 7.58981 26.8168 7.58981 26.3279C7.58981 25.8391 7.75717 25.4267 8.0919 25.0906C8.42662 24.7546 8.84138 24.5866 9.33619 24.5866C9.83099 24.5866 10.2458 24.7539 10.5805 25.0886C10.9152 25.4234 11.0826 25.8381 11.0826 26.3329C11.0826 26.8184 10.9152 27.2309 10.5805 27.5703C10.2458 27.9096 9.83099 28.0793 9.33619 28.0793ZM22.6695 28.0793C22.184 28.0793 21.7716 27.9096 21.4322 27.5703C21.0928 27.2309 20.9231 26.8168 20.9231 26.3279C20.9231 25.8391 21.0928 25.4267 21.4322 25.0906C21.7716 24.7546 22.1857 24.5866 22.6745 24.5866C23.1633 24.5866 23.5758 24.7539 23.9118 25.0886C24.2479 25.4234 24.4159 25.8381 24.4159 26.3329C24.4159 26.8184 24.2485 27.2309 23.9138 27.5703C23.5791 27.9096 23.1643 28.0793 22.6695 28.0793Z" fill="#2D6851"/>
</svg>
