<svg width="92" height="92" viewBox="0 0 92 92" fill="none" xmlns="http://www.w3.org/2000/svg">
<g filter="url(#filter0_d_224_9124)">
<circle cx="46" cy="40" r="36" fill="#EDF7F3"/>
</g>
<g filter="url(#filter1_d_224_9124)">
<path d="M64.8276 54.6562H63.5776V31.5315C63.5776 30.8844 63.0529 30.3597 62.4058 30.3597H57.7183C57.0711 30.3597 56.5465 30.8844 56.5465 31.5315V54.6562H54.2027V39.3439C54.2027 38.6968 53.6781 38.1721 53.0309 38.1721H48.3434C47.6963 38.1721 47.1716 38.6968 47.1716 39.3439V54.6562H44.8279V43.6407C44.8279 42.9936 44.3032 42.4689 43.656 42.4689H38.9686C38.3214 42.4689 37.7967 42.9936 37.7967 43.6407V54.6562H35.453V46.4532C35.453 45.806 34.9283 45.2814 34.2811 45.2814H29.5937C28.9465 45.2814 28.4218 45.806 28.4218 46.4532V54.6562H27.1719C26.5247 54.6562 26 55.1809 26 55.8281C26 56.4753 26.5247 56.9999 27.1719 56.9999H64.8276C65.4748 56.9999 65.9995 56.4753 65.9995 55.8281C65.9995 55.1809 65.4748 54.6562 64.8276 54.6562Z" fill="#2D6851"/>
<path d="M27.1719 42.1801C34.4857 42.1801 42.417 39.5535 49.5048 34.7839C55.0559 31.0484 59.6833 26.2764 62.5576 21.39L63.6957 25.6373C63.836 26.1609 64.5135 26.6132 65.1309 26.4659C65.7605 26.3158 66.127 25.6558 65.9595 25.0307L64.0406 17.8691C63.873 17.244 63.2307 16.8729 62.6054 17.0405L55.4437 18.9594C54.8186 19.1269 54.4477 19.7695 54.6152 20.3947C54.7827 21.0198 55.425 21.3909 56.0504 21.2232L60.664 19.987C57.9824 24.6468 53.5506 29.2364 48.1963 32.8394C41.4911 37.3515 34.0245 39.8364 27.1719 39.8364C26.5247 39.8364 26 40.3611 26 41.0083C26 41.6555 26.5247 42.1801 27.1719 42.1801Z" fill="#2D6851"/>
</g>
<defs>
<filter id="filter0_d_224_9124" x="0" y="0" width="92" height="92" filterUnits="userSpaceOnUse" color-interpolation-filters="sRGB">
<feFlood flood-opacity="0" result="BackgroundImageFix"/>
<feColorMatrix in="SourceAlpha" type="matrix" values="0 0 0 0 0 0 0 0 0 0 0 0 0 0 0 0 0 0 127 0" result="hardAlpha"/>
<feOffset dy="6"/>
<feGaussianBlur stdDeviation="5"/>
<feComposite in2="hardAlpha" operator="out"/>
<feColorMatrix type="matrix" values="0 0 0 0 0.10816 0 0 0 0 0.291667 0 0 0 0 0.22013 0 0 0 0.3 0"/>
<feBlend mode="normal" in2="BackgroundImageFix" result="effect1_dropShadow_224_9124"/>
<feBlend mode="normal" in="SourceGraphic" in2="effect1_dropShadow_224_9124" result="shape"/>
</filter>
<filter id="filter1_d_224_9124" x="16" y="13.0002" width="60" height="59.9997" filterUnits="userSpaceOnUse" color-interpolation-filters="sRGB">
<feFlood flood-opacity="0" result="BackgroundImageFix"/>
<feColorMatrix in="SourceAlpha" type="matrix" values="0 0 0 0 0 0 0 0 0 0 0 0 0 0 0 0 0 0 127 0" result="hardAlpha"/>
<feOffset dy="6"/>
<feGaussianBlur stdDeviation="5"/>
<feComposite in2="hardAlpha" operator="out"/>
<feColorMatrix type="matrix" values="0 0 0 0 0.10816 0 0 0 0 0.291667 0 0 0 0 0.22013 0 0 0 0.3 0"/>
<feBlend mode="normal" in2="BackgroundImageFix" result="effect1_dropShadow_224_9124"/>
<feBlend mode="normal" in="SourceGraphic" in2="effect1_dropShadow_224_9124" result="shape"/>
</filter>
</defs>
</svg>
