<svg width="81" height="80" viewBox="0 0 81 80" fill="none" xmlns="http://www.w3.org/2000/svg">
<path d="M34.9 47.2L26.3 38.6C25.5667 37.8667 24.6333 37.5 23.5 37.5C22.3667 37.5 21.4333 37.8667 20.7 38.6C19.9667 39.3333 19.6 40.2667 19.6 41.4C19.6 42.5333 19.9667 43.4667 20.7 44.2L32.1 55.6C32.9 56.4 33.8333 56.8 34.9 56.8C35.9667 56.8 36.9 56.4 37.7 55.6L60.3 33C61.0333 32.2667 61.4 31.3333 61.4 30.2C61.4 29.0667 61.0333 28.1333 60.3 27.4C59.5667 26.6667 58.6333 26.3 57.5 26.3C56.3667 26.3 55.4333 26.6667 54.7 27.4L34.9 47.2ZM40.5 80C34.9667 80 29.7667 78.95 24.9 76.85C20.0333 74.75 15.8 71.9 12.2 68.3C8.6 64.7 5.75 60.4667 3.65 55.6C1.55 50.7333 0.5 45.5333 0.5 40C0.5 34.4667 1.55 29.2667 3.65 24.4C5.75 19.5333 8.6 15.3 12.2 11.7C15.8 8.1 20.0333 5.25 24.9 3.15C29.7667 1.05 34.9667 0 40.5 0C46.0333 0 51.2333 1.05 56.1 3.15C60.9667 5.25 65.2 8.1 68.8 11.7C72.4 15.3 75.25 19.5333 77.35 24.4C79.45 29.2667 80.5 34.4667 80.5 40C80.5 45.5333 79.45 50.7333 77.35 55.6C75.25 60.4667 72.4 64.7 68.8 68.3C65.2 71.9 60.9667 74.75 56.1 76.85C51.2333 78.95 46.0333 80 40.5 80Z" fill="#84FF79" fill-opacity="0.88"/>
</svg>
