<svg width="92" height="92" viewBox="0 0 92 92" fill="none" xmlns="http://www.w3.org/2000/svg">
<g filter="url(#filter0_d_224_9093)">
<circle cx="46" cy="40" r="36" fill="#EDF7F3"/>
</g>
<g filter="url(#filter1_d_224_9093)">
<path d="M64.5667 40.5892C64.1924 41.9106 63.4439 43.0557 62.4606 43.8127C61.6753 44.4181 60.7837 44.7347 59.9067 44.7347C59.5765 44.7347 59.2536 44.6907 58.9344 44.6004C57.7749 44.2687 56.8356 43.3478 56.3586 42.073C55.922 40.911 55.8926 39.5438 56.2669 38.2221C56.6448 36.9007 57.3933 35.7556 58.373 34.9986C59.4518 34.1672 60.736 33.8799 61.8992 34.2109C63.0587 34.5426 64.0017 35.4635 64.4787 36.7383C64.9116 37.9004 64.9446 39.2675 64.5667 40.5892ZM40.0339 37.2495C41.4136 37.2495 42.7309 36.4815 43.6481 35.1415C44.481 33.9266 44.9397 32.3353 44.9397 30.6599C44.9397 28.983 44.481 27.3917 43.6481 26.1767C42.7308 24.8371 41.4135 24.0691 40.0339 24.0691C38.6506 24.0691 37.3334 24.8371 36.416 26.1767C35.5868 27.3917 35.1281 28.983 35.1281 30.6599C35.1281 32.3353 35.5868 33.9266 36.416 35.1415C37.3334 36.4815 38.6506 37.2495 40.0339 37.2495ZM51.9664 37.2495C53.3498 37.2495 54.667 36.4815 55.5843 35.1415C56.4135 33.9266 56.8722 32.3353 56.8722 30.6599C56.8722 28.983 56.4135 27.3917 55.5843 26.1767C54.667 24.8371 53.3497 24.0691 51.9664 24.0691C50.5867 24.0691 49.2695 24.8371 48.3522 26.1767C47.5193 27.3917 47.0606 28.983 47.0606 30.6599C47.0606 32.3353 47.5193 33.9266 48.3522 35.1415C49.2695 36.4815 50.5867 37.2495 51.9664 37.2495ZM35.7335 38.2229C35.3556 36.9009 34.6071 35.7557 33.6274 34.9987C32.5486 34.1673 31.2644 33.88 30.1012 34.211C28.9381 34.5427 27.9987 35.4636 27.5217 36.7384C27.0887 37.9004 27.0557 39.2676 27.4336 40.5893C27.8079 41.9107 28.5564 43.0558 29.5397 43.8128C30.3249 44.4182 31.2166 44.7348 32.0935 44.7348C32.4201 44.7348 32.7467 44.6907 33.0622 44.6005C34.2253 44.2688 35.1647 43.3478 35.6417 42.0731C36.0785 40.911 36.1078 39.5439 35.7335 38.2229ZM53.1992 41.445C51.1885 39.3314 48.6346 38.1683 46.0002 38.1683C43.3656 38.1683 40.8081 39.3314 38.8047 41.445C36.8893 43.4605 35.5538 46.2572 35.04 49.3214C34.7135 51.276 35.3078 53.1572 36.6765 54.4822C38.1002 55.8611 39.9605 56.2798 41.7805 55.6325C43.1271 55.1518 44.5471 54.9082 46.0002 54.9082C47.4532 54.9082 48.8732 55.1519 50.2199 55.6325C50.7813 55.8321 51.3464 55.9308 51.9004 55.9308C53.1442 55.9308 54.3368 55.4362 55.3201 54.4822C56.6924 53.1573 57.2868 51.276 56.9603 49.3214C56.4466 46.2571 55.111 43.4604 53.1992 41.445Z" fill="#2D6851"/>
</g>
<defs>
<filter id="filter0_d_224_9093" x="0" y="0" width="92" height="92" filterUnits="userSpaceOnUse" color-interpolation-filters="sRGB">
<feFlood flood-opacity="0" result="BackgroundImageFix"/>
<feColorMatrix in="SourceAlpha" type="matrix" values="0 0 0 0 0 0 0 0 0 0 0 0 0 0 0 0 0 0 127 0" result="hardAlpha"/>
<feOffset dy="6"/>
<feGaussianBlur stdDeviation="5"/>
<feComposite in2="hardAlpha" operator="out"/>
<feColorMatrix type="matrix" values="0 0 0 0 0.10816 0 0 0 0 0.291667 0 0 0 0 0.22013 0 0 0 0.3 0"/>
<feBlend mode="normal" in2="BackgroundImageFix" result="effect1_dropShadow_224_9093"/>
<feBlend mode="normal" in="SourceGraphic" in2="effect1_dropShadow_224_9093" result="shape"/>
</filter>
<filter id="filter1_d_224_9093" x="17.1719" y="20.0691" width="57.6562" height="51.8617" filterUnits="userSpaceOnUse" color-interpolation-filters="sRGB">
<feFlood flood-opacity="0" result="BackgroundImageFix"/>
<feColorMatrix in="SourceAlpha" type="matrix" values="0 0 0 0 0 0 0 0 0 0 0 0 0 0 0 0 0 0 127 0" result="hardAlpha"/>
<feOffset dy="6"/>
<feGaussianBlur stdDeviation="5"/>
<feComposite in2="hardAlpha" operator="out"/>
<feColorMatrix type="matrix" values="0 0 0 0 0.10816 0 0 0 0 0.291667 0 0 0 0 0.22013 0 0 0 0.3 0"/>
<feBlend mode="normal" in2="BackgroundImageFix" result="effect1_dropShadow_224_9093"/>
<feBlend mode="normal" in="SourceGraphic" in2="effect1_dropShadow_224_9093" result="shape"/>
</filter>
</defs>
</svg>
