<svg width="30" height="36" viewBox="0 0 30 36" fill="none" xmlns="http://www.w3.org/2000/svg">
<path d="M15.0078 35.479L14.6709 30.19L14.2243 30.1801C10.24 30.0738 6.87451 28.6091 4.12781 25.786C1.38115 22.963 0.0078125 19.556 0.0078125 15.565C0.0078125 11.4944 1.42765 8.04253 4.26731 5.2095C7.10698 2.37647 10.5621 0.959961 14.6328 0.959961C16.6648 0.959961 18.5632 1.34129 20.328 2.10396C22.0928 2.86666 23.641 3.91376 24.9725 5.24529C26.304 6.57679 27.3511 8.12495 28.1138 9.88975C28.8765 11.6546 29.2578 13.553 29.2578 15.585C29.2578 20.0065 27.891 23.939 25.1573 27.3825C22.4236 30.8261 19.0404 33.5249 15.0078 35.479ZM14.6011 24.8096C15.1132 24.8096 15.5475 24.6313 15.9041 24.2747C16.2607 23.9181 16.439 23.4838 16.439 22.9718C16.439 22.4597 16.2607 22.0253 15.9041 21.6688C15.5475 21.3122 15.1132 21.1339 14.6011 21.1339C14.089 21.1339 13.6547 21.3122 13.2981 21.6688C12.9415 22.0253 12.7632 22.4597 12.7632 22.9718C12.7632 23.4838 12.9415 23.9181 13.2981 24.2747C13.6547 24.6313 14.089 24.8096 14.6011 24.8096ZM14.6428 19.4283C14.9749 19.4283 15.2759 19.3072 15.5459 19.065C15.8158 18.8229 16.0057 18.4908 16.1156 18.0687C16.1844 17.7208 16.3405 17.4027 16.5839 17.1144C16.8273 16.826 17.2346 16.3996 17.8058 15.835C18.3191 15.3217 18.7441 14.7734 19.0807 14.19C19.4174 13.6067 19.5857 12.9684 19.5857 12.2752C19.5857 10.8186 19.1032 9.72458 18.1382 8.993C17.1733 8.26142 16.0114 7.89563 14.6527 7.89563C13.6672 7.89563 12.8087 8.12615 12.0771 8.58721C11.3455 9.04826 10.7476 9.62542 10.2832 10.3187C10.0688 10.6441 10.0324 10.9918 10.174 11.3617C10.3156 11.7316 10.5942 11.9926 11.0096 12.1448C11.314 12.2625 11.6216 12.2592 11.9326 12.1348C12.2436 12.0104 12.5235 11.7821 12.7723 11.45C12.9813 11.1644 13.2355 10.931 13.535 10.7498C13.8345 10.5687 14.2005 10.4781 14.6328 10.4781C15.343 10.4781 15.8756 10.6731 16.2306 11.0632C16.5857 11.4533 16.7632 11.8851 16.7632 12.3585C16.7632 12.8042 16.6227 13.2128 16.3416 13.5845C16.0605 13.9562 15.7421 14.3198 15.3864 14.6755C14.6219 15.3356 14.0994 15.8806 13.8189 16.3105C13.5385 16.7404 13.3671 17.3198 13.3049 18.0487C13.2705 18.4153 13.3846 18.7368 13.6473 19.0134C13.91 19.29 14.2418 19.4283 14.6428 19.4283Z" fill="#2D6851"/>
</svg>
