<?xml version="1.0" encoding="utf-8"?>
<!-- Generator: Adobe Illustrator 24.3.0, SVG Export Plug-In . SVG Version: 6.00 Build 0)  -->
<svg version="1.1" id="Layer_1" xmlns="http://www.w3.org/2000/svg" xmlns:xlink="http://www.w3.org/1999/xlink" x="0px" y="0px"
	 viewBox="0 0 24 24" style="enable-background:new 0 0 24 24;" xml:space="preserve">
<style type="text/css">
	.st0{fill:#3E8E6F;}
</style>
<g>
	<path class="st0" d="M12,15.7c2,0,3.7-1.7,3.7-3.7c0-2-1.7-3.7-3.7-3.7S8.3,10,8.3,12C8.3,14,10,15.7,12,15.7z"/>
	<path class="st0" d="M23.6,11C20.8,7.5,16.5,4.2,12,4.2C7.5,4.2,3.2,7.5,0.4,11c-0.5,0.6-0.5,1.5,0,2c0.7,0.9,2.2,2.5,4.2,4
		c5,3.7,9.8,3.7,14.8,0c2-1.5,3.5-3.1,4.2-4C24.1,12.4,24.1,11.6,23.6,11z M12,6.8c2.9,0,5.2,2.3,5.2,5.2c0,2.9-2.3,5.2-5.2,5.2
		c-2.9,0-5.2-2.3-5.2-5.2C6.8,9.1,9.1,6.8,12,6.8z"/>
</g>
</svg>
