<?xml version="1.0" encoding="utf-8"?>
<!-- Generator: Adobe Illustrator 24.3.0, SVG Export Plug-In . SVG Version: 6.00 Build 0)  -->
<svg version="1.1" id="Layer_1" xmlns="http://www.w3.org/2000/svg" xmlns:xlink="http://www.w3.org/1999/xlink" x="0px" y="0px"
	 viewBox="0 0 24 24" style="enable-background:new 0 0 24 24;" xml:space="preserve">
<style type="text/css">
	.st0{fill:#3E8E6F;}
</style>
<g>
	<path class="st0" d="M14,14.3c-0.6,0.4-1.3,0.6-2,0.6c-0.7,0-1.4-0.2-2-0.6L0.2,7.8C0.1,7.7,0.1,7.7,0,7.7v10.7
		c0,1.2,1,2.2,2.2,2.2h19.6c1.2,0,2.2-1,2.2-2.2V7.7c-0.1,0-0.1,0.1-0.2,0.1L14,14.3z"/>
	<path class="st0" d="M0.9,6.6l9.8,6.6c0.4,0.2,0.8,0.4,1.2,0.4s0.9-0.1,1.2-0.4l9.8-6.6c0.6-0.4,0.9-1,0.9-1.8c0-1.2-1-2.2-2.2-2.2
		H2.2C1,2.6,0,3.6,0,4.8C0,5.6,0.4,6.2,0.9,6.6z"/>
</g>
</svg>
