<?xml version="1.0" encoding="utf-8"?>
<!-- Generator: Adobe Illustrator 24.3.0, SVG Export Plug-In . SVG Version: 6.00 Build 0)  -->
<svg version="1.1" id="Layer_1" xmlns="http://www.w3.org/2000/svg" xmlns:xlink="http://www.w3.org/1999/xlink" x="0px" y="0px"
	 viewBox="0 0 24 22" style="enable-background:new 0 0 24 22;" xml:space="preserve">
<style type="text/css">
	.st0{fill:#2D6851;}
</style>
<g>
	<path class="st0" d="M20.8,2.3C20.6,2.1,20.3,2,20,2c0,0,0,0,0,0l-1,0v1v1v14v1v1h1c0.6,0,1-0.4,1-1V3C21,2.7,20.9,2.5,20.8,2.3z"
		/>
	<path class="st0" d="M16.7,0.2C16.5,0,16.2,0,15.9,0L4.5,2C4.1,2.1,3.7,2.5,3.7,3v16c0,0.5,0.3,0.9,0.8,1l11.3,2c0.1,0,0.1,0,0.2,0
		c0.2,0,0.5-0.1,0.6-0.2c0.2-0.2,0.4-0.5,0.4-0.8v-0.2V20v-1v-1V4V3V2V1C17,0.7,16.9,0.4,16.7,0.2z M12.8,12.4
		c-0.2,0.2-0.4,0.3-0.7,0.3s-0.5-0.1-0.7-0.3c-0.2-0.2-0.3-0.4-0.3-0.7c0-0.3,0.1-0.5,0.3-0.7c0.2-0.2,0.4-0.3,0.7-0.3
		s0.5,0.1,0.7,0.3c0.2,0.2,0.3,0.4,0.3,0.7S12.9,12.2,12.8,12.4z"/>
</g>
</svg>
