<svg width="24" height="18" viewBox="0 0 24 18" fill="none" xmlns="http://www.w3.org/2000/svg">
<path d="M4.90684 5.1703C4.88641 4.91498 4.83794 4.65201 4.75877 4.38651C4.53072 3.60726 5.248 2.88323 6.04042 3.08695C7.33661 3.42988 8.63556 3.4288 9.88037 3.11502C10.7119 2.91932 11.3994 3.68816 11.1365 4.47074C11.0676 4.67498 11.0242 4.87926 11.0038 5.08091H12.9876C12.9646 4.85371 12.9186 4.62388 12.8497 4.38646C12.6224 3.63074 13.3193 2.87816 14.1314 3.0869C15.409 3.42496 16.7038 3.43316 17.9713 3.11498C18.8095 2.91768 19.4864 3.69979 19.2275 4.4707C19.1484 4.70559 19.0998 4.9379 19.0819 5.16768C19.4777 5.27493 19.8402 5.4868 20.1288 5.78043L20.2334 5.88768V1.45546C20.2334 0.791618 19.6947 0.25293 19.0284 0.25293H4.97069C4.30431 0.25293 3.76562 0.791664 3.76562 1.45546V5.88773C3.86303 5.80856 4.14747 5.37876 4.90684 5.1703Z" fill="#2D6851"/>
<path d="M0.564453 9.86816H23.4356V12.2681H0.564453V9.86816Z" fill="#2D6851"/>
<path d="M19.7647 6.138C19.5732 5.94394 19.3435 5.79591 19.0932 5.70652C19.1111 5.86992 19.1469 6.03586 19.1979 6.20185C19.4378 7.02253 18.7015 7.76874 17.8754 7.52696C16.6829 7.1588 15.4533 7.16386 14.2371 7.55761C13.4356 7.81172 12.6954 7.08802 12.9044 6.2836C12.9605 6.05382 12.9963 5.82403 13.0039 5.59167H10.9921C11.0074 5.79338 11.0457 5.99761 11.107 6.20442C11.3469 7.01897 10.6124 7.7693 9.78442 7.52696C8.58466 7.1566 7.35278 7.16616 6.14875 7.55761C5.32984 7.81107 4.60834 7.07302 4.81342 6.2836C4.86194 6.09211 4.89513 5.90063 4.90788 5.70657C4.65766 5.79596 4.42788 5.94399 4.23639 6.13805L1.11133 9.35757H22.8897L19.7647 6.138Z" fill="#2D6851"/>
<path d="M10.0049 3.61032C8.64004 3.9511 7.27518 3.9413 5.91027 3.58098C5.50977 3.47523 5.13116 3.8438 5.24812 4.24121C5.47293 5.00504 5.4816 5.72551 5.3068 6.40923C5.19932 6.82965 5.57718 7.20357 5.99024 7.07068C7.30448 6.64791 8.61871 6.63676 9.93294 7.0374C10.3608 7.1678 10.7438 6.7779 10.6158 6.34937C10.4126 5.66883 10.4249 4.9883 10.6527 4.30777C10.7896 3.89846 10.4237 3.50579 10.0049 3.61032Z" fill="#2D6851"/>
<path d="M18.0948 3.61032C16.7299 3.9511 15.365 3.9413 14.0001 3.58098C13.5996 3.47523 13.221 3.8438 13.338 4.24121C13.5628 5.00504 13.5714 5.72551 13.3966 6.40923C13.2892 6.82965 13.667 7.20357 14.0801 7.07068C15.3943 6.64791 16.7086 6.63676 18.0228 7.0374C18.4506 7.1678 18.8337 6.7779 18.7057 6.34937C18.5024 5.66883 18.5147 4.9883 18.7425 4.30777C18.8795 3.89846 18.5135 3.50579 18.0948 3.61032Z" fill="#2D6851"/>
<path d="M19.4414 17.1573C19.4414 17.4842 19.7069 17.7471 20.0312 17.7471H22.0405C22.3673 17.7471 22.6328 17.4842 22.6328 17.1573V16.6646H19.4414V17.1573Z" fill="#2D6851"/>
<path d="M1.36523 17.1573C1.36523 17.4842 1.63078 17.7471 1.95755 17.7471H3.96689C4.29113 17.7471 4.55667 17.4842 4.55667 17.1573V16.6646H1.36523V17.1573Z" fill="#2D6851"/>
<path d="M23.4087 12.7797H0.590906C0.264563 12.7797 0 13.0442 0 13.3706V15.5618C0 15.8882 0.264563 16.1527 0.590906 16.1527H23.4087C23.7351 16.1527 23.9996 15.8882 23.9996 15.5618V13.3706C23.9996 13.0442 23.7351 12.7797 23.4087 12.7797Z" fill="#2D6851"/>
</svg>
