<svg width="32" height="28" viewBox="0 0 32 28" fill="none" xmlns="http://www.w3.org/2000/svg">
<path d="M29.6243 17.7258L25.3289 13.4305L26.5373 12.2221C26.937 11.8224 27.4515 11.6186 28.0808 11.6107C28.71 11.6029 29.2245 11.8067 29.6243 12.2221L30.8326 13.4305C31.2481 13.8302 31.4519 14.3447 31.444 14.974C31.4362 15.6032 31.2324 16.1177 30.8326 16.5175L29.6243 17.7258ZM15.1641 27.8907V23.5953L24.1623 14.5971L28.4576 18.8925L19.4594 27.8907H15.1641ZM0.164062 19.8871V15.4703H13.2674V19.8871H0.164062ZM0.164062 12.4903V8.07355H19.5808V12.4903H0.164062ZM0.164062 5.09351V0.676758H19.5808V5.09351H0.164062Z" fill="#2D6851"/>
</svg>
