<?xml version="1.0" encoding="utf-8"?>
<!-- Generator: Adobe Illustrator 24.3.0, SVG Export Plug-In . SVG Version: 6.00 Build 0)  -->
<svg version="1.1" id="Layer_1" xmlns="http://www.w3.org/2000/svg" xmlns:xlink="http://www.w3.org/1999/xlink" x="0px" y="0px"
	 viewBox="0 0 24 22" style="enable-background:new 0 0 24 22;" xml:space="preserve">
<style type="text/css">
	.st0{fill:#2D6851;}
</style>
<g>
	<path class="st0" d="M6.3,13.1C6.3,9.7,9.1,7,12.4,7s6.1,2.7,6.1,6.1v6H21V5H3.8v14.1h2.5L6.3,13.1L6.3,13.1z"/>
	<path class="st0" d="M15.3,17.3c0-0.7-0.3-1-0.6-1.4c-0.2-0.2-0.4-0.4-0.5-0.7C14,14.8,14,14.4,14,14c-0.6,0.6-0.6,1.4-0.6,1.4
		c0,0.1-0.1,0.3-0.2,0.3c-0.1,0-0.3,0-0.4-0.1c-1-1.3-0.5-2.7-0.1-3.6c-0.8,0.3-1.4,0.7-1.7,1.3c-0.8,1.4-0.3,3.1-0.3,3.1
		c0,0.1,0,0.2-0.1,0.3c-0.1,0.1-0.2,0.1-0.3,0.1c-0.5-0.1-0.9-0.5-1.1-0.9c-0.2,1.3,0.2,2.4,1.1,3.1h4
		C15.1,18.5,15.3,17.7,15.3,17.3z"/>
	<path class="st0" d="M19.6,1c0-0.2-0.1-0.3-0.3-0.3H5.5C5.4,0.7,5.2,0.8,5.2,1v0.8h14.4L19.6,1L19.6,1z"/>
	<path class="st0" d="M3.5,4.4h17.8h0.2c0.2,0,0.3-0.1,0.3-0.3V2.8c0-0.2-0.1-0.3-0.3-0.3H3.3C3.1,2.4,3,2.6,3,2.8v1.3
		c0,0.2,0.1,0.3,0.3,0.3H3.5z"/>
	<path class="st0" d="M22.1,19.8c0-0.1-0.1-0.1-0.1-0.1h-0.6H2.9c-0.1,0-0.1,0-0.1,0.1l-0.7,1.3c0,0.1,0,0.1,0,0.1
		c0,0,0.1,0.1,0.1,0.1h20.3c0.1,0,0.1,0,0.1-0.1c0,0,0-0.1,0-0.1L22.1,19.8z"/>
	<path class="st0" d="M17.9,13.1c0-3-2.5-5.5-5.5-5.5c-3,0-5.5,2.5-5.5,5.5v6h2.4C8.5,18,8.3,16.2,9,14.5c0.1-0.1,0.2-0.2,0.4-0.2
		c0.2,0,0.3,0.2,0.2,0.3c0,0,0,0.8,0.3,1.2C9.9,15.2,9.9,14,10.5,13c0.6-1,1.6-1.6,2.9-1.9c0.1,0,0.3,0,0.3,0.1
		c0.1,0.1,0.1,0.3,0,0.4c0,0-1.1,1.4-0.8,2.8c0.2-0.5,0.6-1.1,1.4-1.4c0.1,0,0.2,0,0.3,0.1c0.1,0.1,0.1,0.2,0.1,0.3
		c-0.1,0.4-0.2,1.2-0.1,1.5c0.1,0.2,0.2,0.3,0.4,0.5c0.4,0.4,0.8,0.9,0.8,1.8c0,0.7-0.2,1.3-0.7,1.8h2.6V13.1z"/>
</g>
</svg>
