<svg width="35" height="33" viewBox="0 0 35 33" fill="none" xmlns="http://www.w3.org/2000/svg">
<path d="M0.833984 23.6663V2.05522C0.833984 1.63855 1.0076 1.24735 1.35482 0.881633C1.70204 0.515883 2.08398 0.333008 2.50065 0.333008H24.1395C24.5747 0.333008 24.9659 0.511244 25.3132 0.867717C25.6604 1.22422 25.834 1.62005 25.834 2.05522V16.9441C25.834 17.3608 25.6604 17.752 25.3132 18.1177C24.9659 18.4835 24.5747 18.6663 24.1395 18.6663H7.50065L2.02844 24.1386C1.79694 24.3701 1.54 24.4279 1.25761 24.3122C0.975193 24.1964 0.833984 23.9811 0.833984 23.6663ZM9.19511 26.9997C8.77844 26.9997 8.39186 26.8168 8.03536 26.4511C7.67889 26.0853 7.50065 25.6941 7.50065 25.2775V21.4441H28.6117V6.99968H32.5007C32.9173 6.99968 33.2993 7.18255 33.6465 7.5483C33.9937 7.91402 34.1673 8.31448 34.1673 8.74968V31.9719C34.1673 32.2867 34.0261 32.502 33.7437 32.6177C33.4613 32.7335 33.2044 32.6756 32.9729 32.4441L27.5284 26.9997H9.19511Z" fill="#2D6851"/>
</svg>
