<svg width="32" height="32" viewBox="0 0 32 32" fill="none" xmlns="http://www.w3.org/2000/svg">
<path d="M8.7406 15.1399C8.7844 12.9206 8.992 10.839 9.344 8.95773C7.1148 8.70213 4.8841 8.33322 2.553 7.82072C2.4541 7.79892 2.3677 7.75403 2.2865 7.70312C0.9579 9.89503 0.1442 12.4254 0 15.1399H8.7406Z" fill="#2D6851"/>
<path d="M16.0084 7.65248C17.4925 7.67268 18.9985 7.61088 20.5503 7.50408C19.4669 3.35218 17.6737 0.813477 15.9989 0.813477C14.3336 0.813477 12.5502 3.32168 11.4648 7.43168C12.9734 7.55308 14.4955 7.63598 16.0084 7.65248Z" fill="#2D6851"/>
<path d="M22.2866 24.7295C21.4749 27.9845 20.209 30.475 18.6562 31.8085C22.7316 31.1278 26.2797 28.918 28.6991 25.7799C26.5029 25.309 24.3919 24.9648 22.2866 24.7295Z" fill="#2D6851"/>
<path d="M23.2596 16.8594C23.2159 19.0787 23.0082 21.1602 22.6562 23.0415C24.8854 23.2971 27.116 23.6661 29.4477 24.1786C29.5466 24.2004 29.6329 24.2453 29.7141 24.2962C31.0427 22.1043 31.8565 19.5739 32.0007 16.8594H23.2596Z" fill="#2D6851"/>
<path d="M15.9914 24.348C14.5082 24.3296 13.0015 24.3903 11.4492 24.4967C12.5327 28.6483 14.3262 31.187 16.0009 31.187C17.6662 31.187 19.4494 28.6787 20.5346 24.5687C19.0258 24.4474 17.5036 24.3645 15.9914 24.348Z" fill="#2D6851"/>
<path d="M23.2584 15.1408H31.9995C31.8597 12.5079 31.0918 10.0473 29.833 7.90137C29.7521 7.95077 29.6665 7.99507 29.5685 8.01577C27.3081 8.49507 24.9941 8.84077 22.6758 9.06177C23.0161 10.9155 23.2154 12.9627 23.2584 15.1408Z" fill="#2D6851"/>
<path d="M8.7406 16.8594H0C0.1398 19.4922 0.9077 21.9528 2.1664 24.0986C2.2473 24.0494 2.3325 24.0051 2.4304 23.9844C4.6915 23.5046 7.0079 23.1748 9.3263 22.954C8.9842 21.0961 8.7837 19.0438 8.7406 16.8594Z" fill="#2D6851"/>
<path d="M9.69081 24.6427C7.49591 24.8443 5.30852 25.1593 3.16602 25.5994C5.58722 28.8323 9.19132 31.1148 13.3437 31.8084C11.777 30.4629 10.5015 27.9405 9.69081 24.6427Z" fill="#2D6851"/>
<path d="M9.71288 7.27031C10.5247 4.01531 11.7909 1.52491 13.3436 0.191406C9.26838 0.872106 5.72038 3.08191 3.30078 6.22001C5.49668 6.69081 7.60738 7.03491 9.71288 7.27031Z" fill="#2D6851"/>
<path d="M16.6076 9.37458C16.4017 9.37458 16.1958 9.37348 15.9899 9.37118C14.3562 9.35338 12.7109 9.26328 11.0814 9.12598C10.7291 10.9159 10.5061 12.9375 10.459 15.1401H21.5394C21.493 12.9692 21.2757 10.9743 20.9322 9.20358C19.4554 9.31018 18.0217 9.37458 16.6076 9.37458Z" fill="#2D6851"/>
<path d="M22.309 7.35731C24.5034 7.15571 26.691 6.84071 28.8342 6.40051C26.4128 3.16751 22.8088 0.885006 18.6562 0.191406C20.2229 1.53691 21.4982 4.05941 22.309 7.35731Z" fill="#2D6851"/>
<path d="M16.0089 22.6283C17.6419 22.6461 19.2872 22.7363 20.917 22.8735C21.2692 21.0836 21.4922 19.062 21.5394 16.8594H10.459C10.5055 19.031 10.7228 21.0266 11.0667 22.7978C12.7574 22.6754 14.3892 22.6089 16.0089 22.6283Z" fill="#2D6851"/>
</svg>
