<svg width="69" height="68" viewBox="0 0 69 68" fill="none" xmlns="http://www.w3.org/2000/svg">
<g filter="url(#filter0_d_224_9070)">
<path d="M23.6109 26.7106C23.6766 23.3817 23.988 20.2593 24.516 17.4373C21.1722 17.0539 17.8261 16.5006 14.3295 15.7318C14.1811 15.6991 14.0515 15.6318 13.9297 15.5554C11.9368 18.8433 10.7163 22.6389 10.5 26.7106H23.6109Z" fill="#2D6851"/>
<path d="M34.5146 15.4783C36.7408 15.5086 38.9998 15.4159 41.3275 15.2557C39.7024 9.02784 37.0126 5.21979 34.5004 5.21979C32.0024 5.21979 29.3273 8.98209 27.6992 15.1471C29.9621 15.3292 32.2453 15.4535 34.5146 15.4783Z" fill="#2D6851"/>
<path d="M43.93 41.0942C42.7124 45.9767 40.8134 49.7125 38.4844 51.7127C44.5973 50.6917 49.9195 47.377 53.5486 42.6698C50.2543 41.9635 47.0879 41.4472 43.93 41.0942Z" fill="#2D6851"/>
<path d="M45.3893 29.2894C45.3238 32.6184 45.0124 35.7406 44.4844 38.5626C47.8282 38.946 51.1739 39.4995 54.6715 40.2682C54.8198 40.3009 54.9494 40.3683 55.0712 40.4446C57.0641 37.1568 58.2847 33.3612 58.501 29.2894H45.3893Z" fill="#2D6851"/>
<path d="M34.4852 40.5217C32.2604 40.4941 30.0003 40.5851 27.6719 40.7447C29.2971 46.9721 31.9874 50.7802 34.4994 50.7802C36.9974 50.7802 39.6722 47.0177 41.3 40.8527C39.0368 40.6708 36.7535 40.5464 34.4852 40.5217Z" fill="#2D6851"/>
<path d="M45.3895 26.7106H58.5012C58.2915 22.7613 57.1396 19.0704 55.2514 15.8515C55.1301 15.9256 55.0017 15.9921 54.8547 16.0231C51.4641 16.7421 47.9931 17.2606 44.5156 17.5921C45.0261 20.3727 45.325 23.4435 45.3895 26.7106Z" fill="#2D6851"/>
<path d="M23.6109 29.2894H10.5C10.7097 33.2386 11.8615 36.9295 13.7496 40.1482C13.8709 40.0744 13.9987 40.008 14.1456 39.9769C17.5373 39.2572 21.0118 38.7625 24.4894 38.4313C23.9763 35.6445 23.6755 32.566 23.6109 29.2894Z" fill="#2D6851"/>
<path d="M25.0372 40.9642C21.7448 41.2666 18.4637 41.7391 15.25 42.3993C18.8818 47.2486 24.288 50.6724 30.5166 51.7128C28.1665 49.6945 26.2532 45.9109 25.0372 40.9642Z" fill="#2D6851"/>
<path d="M25.0693 14.9056C26.287 10.0231 28.1863 6.28748 30.5154 4.28723C24.4026 5.30828 19.0806 8.62298 15.4512 13.3301C18.745 14.0363 21.9111 14.5525 25.0693 14.9056Z" fill="#2D6851"/>
<path d="M35.4124 18.0622C35.1035 18.0622 34.7947 18.0605 34.4858 18.0571C32.0353 18.0304 29.5673 17.8952 27.1231 17.6893C26.5946 20.3741 26.2601 23.4065 26.1895 26.7104H42.8101C42.7405 23.4541 42.4145 20.4617 41.8993 17.8057C39.6841 17.9656 37.5335 18.0622 35.4124 18.0622Z" fill="#2D6851"/>
<path d="M43.9634 15.0361C47.255 14.7337 50.5364 14.2612 53.7512 13.6009C50.1191 8.75138 44.7133 5.32763 38.4844 4.28723C40.8344 6.30548 42.7472 10.0892 43.9634 15.0361Z" fill="#2D6851"/>
<path d="M34.5143 37.9429C36.9638 37.9696 39.4318 38.1049 41.8765 38.3107C42.4048 35.6259 42.7393 32.5935 42.8101 29.2896H26.1895C26.2592 32.547 26.5852 35.5404 27.101 38.1972C29.6371 38.0136 32.0848 37.9138 34.5143 37.9429Z" fill="#2D6851"/>
</g>
<defs>
<filter id="filter0_d_224_9070" x="0.5" y="0" width="68.002" height="68" filterUnits="userSpaceOnUse" color-interpolation-filters="sRGB">
<feFlood flood-opacity="0" result="BackgroundImageFix"/>
<feColorMatrix in="SourceAlpha" type="matrix" values="0 0 0 0 0 0 0 0 0 0 0 0 0 0 0 0 0 0 127 0" result="hardAlpha"/>
<feOffset dy="6"/>
<feGaussianBlur stdDeviation="5"/>
<feComposite in2="hardAlpha" operator="out"/>
<feColorMatrix type="matrix" values="0 0 0 0 0.10816 0 0 0 0 0.291667 0 0 0 0 0.22013 0 0 0 0.3 0"/>
<feBlend mode="normal" in2="BackgroundImageFix" result="effect1_dropShadow_224_9070"/>
<feBlend mode="normal" in="SourceGraphic" in2="effect1_dropShadow_224_9070" result="shape"/>
</filter>
</defs>
</svg>
