<svg width="32" height="30" viewBox="0 0 32 30" fill="none" xmlns="http://www.w3.org/2000/svg">
<path d="M29.3831 2.92748C27.7279 1.14841 25.4086 0.136141 22.9787 0.132388C20.5468 0.135203 18.225 1.14693 16.5673 2.92634L16.0023 3.52334L15.4374 2.92634C12.148 -0.613913 6.61143 -0.817224 3.07125 2.47214C2.91437 2.61796 2.76286 2.7694 2.61705 2.92634C-0.872348 6.69008 -0.872348 12.5068 2.61705 16.2705L15.1721 29.5106C15.6064 29.9691 16.3303 29.9888 16.7889 29.5544C16.8039 29.5402 16.8185 29.5256 16.8327 29.5106L29.3832 16.2705C32.8723 12.5072 32.8723 6.69082 29.3831 2.92748ZM27.7283 14.6957H27.7271L16.0023 27.062L4.2765 14.6957C1.61081 11.8198 1.61081 7.37587 4.2765 4.50003C6.69727 1.87628 10.7868 1.71177 13.4105 4.13254C13.5379 4.25008 13.6604 4.37264 13.778 4.50003L15.1721 5.97078C15.6315 6.42726 16.3733 6.42726 16.8327 5.97078L18.2268 4.50117C20.6475 1.87742 24.737 1.71291 27.3608 4.13368C27.4882 4.25122 27.6107 4.37378 27.7283 4.50117C30.4171 7.38157 30.4368 11.8336 27.7283 14.6957Z" fill="white"/>
</svg>
