<svg width="41" height="40" viewBox="0 0 41 40" fill="none" xmlns="http://www.w3.org/2000/svg">
<g filter="url(#filter0_d_402_5239)">
<path d="M29.9608 12.699C29.9603 12.6986 29.9599 12.6981 29.9594 12.6977L21.801 4.53955C21.4532 4.19165 20.9909 4 20.4991 4C20.0073 4 19.545 4.1915 19.1971 4.5394L11.0429 12.6934C11.0402 12.6961 11.0374 12.699 11.0347 12.7018C10.3206 13.42 10.3218 14.5853 11.0382 15.3017C11.3655 15.6292 11.7978 15.8188 12.26 15.8387C12.2787 15.8405 12.2977 15.8414 12.3167 15.8414H12.6419V21.8453C12.6419 23.0334 13.6085 24 14.7969 24H17.9887C18.3122 24 18.5747 23.7377 18.5747 23.4141V18.707C18.5747 18.1649 19.0156 17.7239 19.5578 17.7239H21.4404C21.9826 17.7239 22.4235 18.1649 22.4235 18.707V23.4141C22.4235 23.7377 22.6858 24 23.0095 24H26.2013C27.3897 24 28.3563 23.0334 28.3563 21.8453V15.8414H28.6578C29.1495 15.8414 29.6118 15.6499 29.9599 15.302C30.677 14.5844 30.6773 13.4171 29.9608 12.699Z" fill="#2D6851"/>
</g>
<defs>
<filter id="filter0_d_402_5239" x="0.5" y="0" width="39.998" height="40" filterUnits="userSpaceOnUse" color-interpolation-filters="sRGB">
<feFlood flood-opacity="0" result="BackgroundImageFix"/>
<feColorMatrix in="SourceAlpha" type="matrix" values="0 0 0 0 0 0 0 0 0 0 0 0 0 0 0 0 0 0 127 0" result="hardAlpha"/>
<feOffset dy="6"/>
<feGaussianBlur stdDeviation="5"/>
<feComposite in2="hardAlpha" operator="out"/>
<feColorMatrix type="matrix" values="0 0 0 0 0.10816 0 0 0 0 0.291667 0 0 0 0 0.22013 0 0 0 0.3 0"/>
<feBlend mode="normal" in2="BackgroundImageFix" result="effect1_dropShadow_402_5239"/>
<feBlend mode="normal" in="SourceGraphic" in2="effect1_dropShadow_402_5239" result="shape"/>
</filter>
</defs>
</svg>
