<svg width="36" height="36" viewBox="0 0 36 36" fill="none" xmlns="http://www.w3.org/2000/svg">
<path fill-rule="evenodd" clip-rule="evenodd" d="M24.5069 21.9606C26.0552 19.8855 26.9719 17.3114 26.9719 14.5233C26.9719 7.64816 21.3985 2.07476 14.5233 2.07476C7.64816 2.07476 2.07476 7.64816 2.07476 14.5233C2.07476 21.3984 7.64816 26.9718 14.5233 26.9718C17.3115 26.9718 19.8855 26.0552 21.9606 24.5068L24.5069 21.9606ZM26.1552 23.2211C27.971 20.7966 29.0466 17.7855 29.0466 14.5233C29.0466 6.50228 22.5443 0 14.5233 0C6.50232 0 0 6.50228 0 14.5233C0 22.5442 6.50232 29.0466 14.5233 29.0466C17.7855 29.0466 20.7965 27.971 23.221 26.1552L24.7011 27.6353L29.6243 34.5278C30.8868 36.2954 33.4344 36.5063 34.9703 34.9703C36.5063 33.4344 36.2954 30.8869 34.5279 29.6243L27.635 24.7008L26.1552 23.2211ZM24.8971 14.5233C24.8971 20.2526 20.2526 24.897 14.5233 24.897C8.79404 24.897 4.14952 20.2526 4.14952 14.5233C4.14952 8.794 8.79404 4.14952 14.5233 4.14952C20.2526 4.14952 24.8971 8.794 24.8971 14.5233Z" fill="#2D6851"/>
</svg>
