<svg width="31" height="28" viewBox="0 0 31 28" fill="none" xmlns="http://www.w3.org/2000/svg">
<path d="M25.7085 9.81554C24.4436 9.81554 23.3734 9.37786 22.4981 8.5025C21.6227 7.62716 21.185 6.55701 21.185 5.29205C21.185 4.02709 21.6227 2.95694 22.4981 2.0816C23.3734 1.20624 24.4436 0.768555 25.7085 0.768555C26.9735 0.768555 28.0436 1.20624 28.919 2.0816C29.7943 2.95694 30.232 4.02709 30.232 5.29205C30.232 6.55701 29.7943 7.62716 28.919 8.5025C28.0436 9.37786 26.9735 9.81554 25.7085 9.81554ZM3.5535 27.7441C2.66781 27.7441 1.91077 27.4299 1.2824 26.8015C0.65403 26.1731 0.339844 25.4161 0.339844 24.5304V6.47035C0.339844 5.58088 0.65403 4.82062 1.2824 4.18955C1.91077 3.55848 2.66781 3.24295 3.5535 3.24295H18.5722C18.4042 3.77628 18.3029 4.31303 18.2684 4.8532C18.2339 5.39339 18.2673 5.93244 18.3688 6.47035C18.5024 7.3242 18.7715 8.11651 19.176 8.84728C19.5805 9.57803 20.0922 10.2194 20.7111 10.7714L15.5002 14.1995L5.42819 7.62378C5.02275 7.35924 4.60893 7.34136 4.18675 7.57015C3.76458 7.79894 3.5535 8.16397 3.5535 8.66525C3.5535 8.86628 3.60545 9.054 3.70936 9.22842C3.81327 9.40284 3.95276 9.54996 4.12783 9.66978L14.6294 16.5756C14.9042 16.7602 15.1944 16.8525 15.5002 16.8525C15.806 16.8525 16.0962 16.7602 16.371 16.5756L23.0582 12.1896C23.4742 12.3773 23.9017 12.5147 24.3408 12.6017C24.7799 12.6887 25.2358 12.7322 25.7085 12.7322C26.6399 12.7322 27.5275 12.5705 28.3713 12.2471C29.2152 11.9238 29.9828 11.4514 30.6743 10.83V24.5304C30.6743 25.4161 30.3588 26.1731 29.7277 26.8015C29.0966 27.4299 28.3364 27.7441 27.4469 27.7441H3.5535Z" fill="#2D6851"/>
</svg>
