<svg width="44" height="38" viewBox="0 0 44 38" fill="none" xmlns="http://www.w3.org/2000/svg">
<g filter="url(#filter0_d_224_9487)">
<path d="M24.0057 15.7043C23.4086 16.1024 22.7151 16.3128 22 16.3128C21.285 16.3128 20.5914 16.1024 19.9943 15.7043L10.1598 9.14777C10.1052 9.11139 10.0521 9.07347 10 9.03447V19.7781C10 21.0099 10.9996 21.9874 12.2094 21.9874H31.7906C33.0224 21.9874 34 20.9878 34 19.7781V9.03442C33.9478 9.07352 33.8945 9.11153 33.8398 9.14796L24.0057 15.7043Z" fill="#3E8E6F"/>
<path d="M10.9398 7.9777L20.7744 14.5343C21.1466 14.7825 21.5733 14.9066 22 14.9066C22.4267 14.9066 22.8534 14.7825 23.2256 14.5343L33.0602 7.9777C33.6487 7.58559 34 6.92934 34 6.22106C34 5.0032 33.0092 4.01245 31.7914 4.01245H12.2086C10.9908 4.0125 10 5.00325 10 6.22223C10 6.92934 10.3514 7.58559 10.9398 7.9777Z" fill="#3E8E6F"/>
</g>

</svg>
