<svg width="22" height="22" viewBox="0 0 22 22" fill="none" xmlns="http://www.w3.org/2000/svg">
<path d="M21.5693 0.242261C21.3525 0.0541008 21.0645 -0.0305476 20.7802 0.00992898L6.911 1.99122C6.42292 2.06096 6.06044 2.47896 6.06044 2.97198V6.9346V14.5868C5.47366 14.245 4.79247 14.0481 4.06579 14.0481C1.87348 14.0481 0.0898438 15.8318 0.0898438 18.0241C0.0898438 20.2164 1.87343 22 4.06574 22C6.25805 22 8.04168 20.2164 8.04168 18.0241V7.7938L19.9295 6.09555V12.6055C19.3428 12.2636 18.6616 12.0668 17.9349 12.0668C15.7426 12.0668 13.959 13.8504 13.959 16.0427C13.959 18.235 15.7426 20.0187 17.9349 20.0187C20.1272 20.0187 21.9108 18.235 21.9108 16.0427V4.95327V0.990648C21.9109 0.703445 21.7863 0.430421 21.5693 0.242261Z" fill="#2D6851"/>
</svg>
