<svg width="65" height="66" viewBox="0 0 65 66" fill="none" xmlns="http://www.w3.org/2000/svg">
<g filter="url(#filter0_d_494_775)">
<path d="M23.9154 38.3773C22.2854 37.423 20.5892 36.5866 18.8397 35.8747C20.6734 35.2915 22.5425 34.8266 24.4357 34.4828C24.2281 35.778 24.0537 37.0821 23.9154 38.3773ZM36.9795 44.9906H42.2295V49.4906H22.7295V44.9906H27.9795C28.1784 44.9906 28.3692 44.9116 28.5099 44.7709C28.6505 44.6303 28.7295 44.4395 28.7295 44.2406V33.9146C31.2251 33.7057 33.7338 33.7051 36.2295 33.9128V44.2406C36.2295 44.4395 36.3085 44.6303 36.4492 44.7709C36.5899 44.9116 36.7806 44.9906 36.9795 44.9906ZM40.5444 34.4828C42.4375 34.8266 44.3066 35.2915 46.1401 35.8747C44.3907 36.5866 42.6945 37.4229 41.0647 38.3773C40.9262 37.0819 40.7519 35.7777 40.5444 34.4828ZM54.0392 37.5478C53.0696 38.0013 52.1173 38.4876 51.1953 39.0009C51.049 39.0823 50.9341 39.2103 50.869 39.3646C50.8039 39.5188 50.7923 39.6904 50.836 39.8521C51.0356 40.5901 51.2156 41.335 51.3745 42.0798C48.7636 40.7351 46.0162 39.6738 43.1793 38.914C44.9224 37.9893 46.7335 37.1986 48.5967 36.5489C48.6191 36.5411 48.6413 36.5322 48.6629 36.5222C48.7524 36.481 48.8329 36.4226 48.8998 36.3502C48.9667 36.2779 49.0187 36.1932 49.0528 36.1008L49.3105 35.403C50.9252 36.0297 52.5039 36.7458 54.0392 37.5478ZM27.9795 18.7406H22.576L31.3978 4.4906H36.23V24.887C33.733 24.7141 31.227 24.7145 28.73 24.8884V19.4906C28.73 19.3921 28.7106 19.2945 28.6729 19.2035C28.6351 19.1125 28.5799 19.0298 28.5102 18.9601C28.4405 18.8905 28.3577 18.8352 28.2667 18.7976C28.1756 18.7599 28.0781 18.7405 27.9795 18.7406ZM49.9827 29.2531L47.9037 34.8829C37.9263 31.3825 27.0546 31.3825 17.0772 34.8829L14.9981 29.2534C26.3174 25.2592 38.6628 25.2592 49.9822 29.2534L49.9827 29.2531ZM15.6702 35.4022L15.9279 36.1C15.962 36.1924 16.014 36.2772 16.0809 36.3495C16.1478 36.4218 16.2282 36.4802 16.3177 36.5214C16.3407 36.532 16.3643 36.5414 16.3884 36.5495C18.25 37.199 20.0595 37.9892 21.8013 38.9132C18.9645 39.6729 16.2171 40.7342 13.6062 42.0789C13.7656 41.3342 13.9452 40.5892 14.1447 39.8512C14.1884 39.6896 14.1767 39.518 14.1116 39.3637C14.0465 39.2095 13.9316 39.0815 13.7853 39.0001C12.8632 38.487 11.9112 38.0008 10.9414 37.5469C12.4765 36.7451 14.0551 36.0292 15.6697 35.4026L15.6702 35.4022Z" fill="#2D6851"/>
</g>
<defs>
<filter id="filter0_d_494_775" x="0.941406" y="0.490601" width="63.0977" height="65" filterUnits="userSpaceOnUse" color-interpolation-filters="sRGB">
<feFlood flood-opacity="0" result="BackgroundImageFix"/>
<feColorMatrix in="SourceAlpha" type="matrix" values="0 0 0 0 0 0 0 0 0 0 0 0 0 0 0 0 0 0 127 0" result="hardAlpha"/>
<feOffset dy="6"/>
<feGaussianBlur stdDeviation="5"/>
<feComposite in2="hardAlpha" operator="out"/>
<feColorMatrix type="matrix" values="0 0 0 0 0.10816 0 0 0 0 0.291667 0 0 0 0 0.22013 0 0 0 0.3 0"/>
<feBlend mode="normal" in2="BackgroundImageFix" result="effect1_dropShadow_494_775"/>
<feBlend mode="normal" in="SourceGraphic" in2="effect1_dropShadow_494_775" result="shape"/>
</filter>
</defs>
</svg>
