<svg width="44" height="38" viewBox="0 0 44 38" fill="none" xmlns="http://www.w3.org/2000/svg">
<g filter="url(#filter0_d_224_10043)">
<path d="M14.9068 9.1703C14.8864 8.91498 14.8379 8.65201 14.7588 8.38651C14.5307 7.60726 15.248 6.88323 16.0404 7.08695C17.3366 7.42988 18.6356 7.4288 19.8804 7.11502C20.7119 6.91932 21.3994 7.68816 21.1365 8.47074C21.0676 8.67498 21.0242 8.87926 21.0038 9.08091H22.9876C22.9646 8.85371 22.9186 8.62388 22.8497 8.38646C22.6224 7.63074 23.3193 6.87816 24.1314 7.0869C25.409 7.42496 26.7038 7.43316 27.9713 7.11498C28.8095 6.91768 29.4864 7.69979 29.2275 8.4707C29.1484 8.70559 29.0998 8.9379 29.0819 9.16768C29.4777 9.27493 29.8402 9.4868 30.1288 9.78043L30.2334 9.88768V5.45546C30.2334 4.79162 29.6947 4.25293 29.0284 4.25293H14.9707C14.3043 4.25293 13.7656 4.79166 13.7656 5.45546V9.88773C13.863 9.80856 14.1475 9.37876 14.9068 9.1703Z" fill="#2D6851"/>
<path d="M10.5645 13.8682H33.4356V16.2681H10.5645V13.8682Z" fill="#2D6851"/>
<path d="M29.7647 10.138C29.5732 9.94394 29.3435 9.79591 29.0932 9.70652C29.1111 9.86992 29.1469 10.0359 29.1979 10.2018C29.4378 11.0225 28.7015 11.7687 27.8754 11.527C26.6829 11.1588 25.4533 11.1639 24.2371 11.5576C23.4356 11.8117 22.6954 11.088 22.9044 10.2836C22.9605 10.0538 22.9963 9.82403 23.0039 9.59167H20.9921C21.0074 9.79338 21.0457 9.99761 21.107 10.2044C21.3469 11.019 20.6124 11.7693 19.7844 11.527C18.5847 11.1566 17.3528 11.1662 16.1488 11.5576C15.3298 11.8111 14.6083 11.073 14.8134 10.2836C14.8619 10.0921 14.8951 9.90063 14.9079 9.70657C14.6577 9.79596 14.4279 9.94399 14.2364 10.138L11.1113 13.3576H32.8897L29.7647 10.138Z" fill="#2D6851"/>
<path d="M20.0049 7.61032C18.64 7.9511 17.2752 7.9413 15.9103 7.58098C15.5098 7.47523 15.1312 7.8438 15.2481 8.24121C15.4729 9.00504 15.4816 9.72551 15.3068 10.4092C15.1993 10.8296 15.5772 11.2036 15.9902 11.0707C17.3045 10.6479 18.6187 10.6368 19.9329 11.0374C20.3608 11.1678 20.7438 10.7779 20.6158 10.3494C20.4126 9.66883 20.4249 8.9883 20.6527 8.30777C20.7896 7.89846 20.4237 7.50579 20.0049 7.61032Z" fill="#2D6851"/>
<path d="M28.0948 7.61032C26.7299 7.9511 25.365 7.9413 24.0001 7.58098C23.5996 7.47523 23.221 7.8438 23.338 8.24121C23.5628 9.00504 23.5714 9.72551 23.3966 10.4092C23.2892 10.8296 23.667 11.2036 24.0801 11.0707C25.3943 10.6479 26.7086 10.6368 28.0228 11.0374C28.4506 11.1678 28.8337 10.7779 28.7057 10.3494C28.5024 9.66883 28.5147 8.9883 28.7425 8.30777C28.8795 7.89846 28.5135 7.50579 28.0948 7.61032Z" fill="#2D6851"/>
<path d="M29.4414 21.1573C29.4414 21.4842 29.7069 21.7471 30.0312 21.7471H32.0405C32.3673 21.7471 32.6328 21.4842 32.6328 21.1573V20.6646H29.4414V21.1573Z" fill="#2D6851"/>
<path d="M11.3652 21.1573C11.3652 21.4842 11.6308 21.7471 11.9575 21.7471H13.9669C14.2911 21.7471 14.5567 21.4842 14.5567 21.1573V20.6646H11.3652V21.1573Z" fill="#2D6851"/>
<path d="M33.4087 16.7797H10.5909C10.2646 16.7797 10 17.0442 10 17.3706V19.5618C10 19.8882 10.2646 20.1527 10.5909 20.1527H33.4087C33.7351 20.1527 33.9996 19.8882 33.9996 19.5618V17.3706C33.9996 17.0442 33.7351 16.7797 33.4087 16.7797Z" fill="#2D6851"/>
</g>
<defs>
<filter id="filter0_d_224_10043" x="0" y="0.25293" width="44" height="37.4941" filterUnits="userSpaceOnUse" color-interpolation-filters="sRGB">
<feFlood flood-opacity="0" result="BackgroundImageFix"/>
<feColorMatrix in="SourceAlpha" type="matrix" values="0 0 0 0 0 0 0 0 0 0 0 0 0 0 0 0 0 0 127 0" result="hardAlpha"/>
<feOffset dy="6"/>
<feGaussianBlur stdDeviation="5"/>
<feComposite in2="hardAlpha" operator="out"/>
<feColorMatrix type="matrix" values="0 0 0 0 0.10816 0 0 0 0 0.291667 0 0 0 0 0.22013 0 0 0 0.3 0"/>
<feBlend mode="normal" in2="BackgroundImageFix" result="effect1_dropShadow_224_10043"/>
<feBlend mode="normal" in="SourceGraphic" in2="effect1_dropShadow_224_10043" result="shape"/>
</filter>
</defs>
</svg>
