<svg width="24" height="20" viewBox="0 0 24 20" fill="none" xmlns="http://www.w3.org/2000/svg">
<path d="M8.05008 4.6411L9.49514 3.19599L8.81344 2.51429C7.70794 1.40879 6.23728 0.801147 4.67475 0.801147H1.02127C0.457031 0.801147 0 1.25818 0 1.82241C0 2.38665 0.457031 2.84368 1.02127 2.84368H4.67484C5.69353 2.84368 6.64842 3.23944 7.36842 3.9594L8.05008 4.6411Z" fill="#2D6851"/>
<path d="M14.1061 2.58835C13.1998 1.68198 11.7292 1.68198 10.8228 2.58835L7.38877 6.02232C6.48239 6.92869 6.48239 8.3993 7.38877 9.30568L7.84833 9.76777L14.5682 3.05044L14.1061 2.58835Z" fill="#2D6851"/>
<path d="M16.3791 3.72699L14.9289 3.4104L8.20898 10.1278L8.52816 11.5728L16.3791 3.72699Z" fill="#2D6851"/>
<path d="M17.6731 4.74063L17.8033 4.61046C18.0229 4.39089 18.0229 4.036 17.8033 3.81644C17.5838 3.59683 17.2289 3.59683 17.0093 3.81644L8.61451 12.2086C8.39443 12.4339 8.39903 12.7819 8.61451 13.0026C8.83407 13.2222 9.19154 13.2222 9.40853 13.0026L9.54128 12.8724C9.87831 13.212 10.4297 13.212 10.7668 12.8724L17.6731 5.96866C18.0127 5.62914 18.0127 5.08019 17.6731 4.74063Z" fill="#2D6851"/>
<path d="M12.0137 12.9835C12.0137 12.9835 12.3331 14.0702 12.5456 14.2827C12.7565 14.4936 13.1019 14.4936 13.3128 14.2827C13.5253 14.0702 13.5237 13.7263 13.3128 13.5154C13.1004 13.3029 12.0137 12.9835 12.0137 12.9835Z" fill="#2D6851"/>
<path d="M15.2366 11.5918C15.0242 11.3793 13.9375 11.0599 13.9375 11.0599C13.9375 11.0599 14.2569 12.1466 14.4694 12.3591C14.6803 12.57 15.0257 12.57 15.2366 12.3591C15.4491 12.1466 15.4475 11.8027 15.2366 11.5918Z" fill="#2D6851"/>
<path d="M16.3913 10.4355C16.6022 10.6464 16.9476 10.6464 17.1585 10.4355C17.371 10.223 17.3694 9.87913 17.1585 9.66824C16.946 9.45576 15.8594 9.13635 15.8594 9.13635C15.8594 9.13635 16.1788 10.2231 16.3913 10.4355Z" fill="#2D6851"/>
<path d="M18.3151 8.51191C18.526 8.7228 18.8715 8.72285 19.0823 8.51191C19.2948 8.29943 19.2932 7.95555 19.0823 7.74466C18.8699 7.53217 17.7832 7.21277 17.7832 7.21277C17.7832 7.21277 18.1027 8.29943 18.3151 8.51191Z" fill="#2D6851"/>
<path d="M16.18 14.4601C15.9675 14.2476 14.8809 13.9282 14.8809 13.9282C14.8809 13.9282 15.2003 15.0149 15.4127 15.2274C15.6236 15.4383 15.9691 15.4383 16.18 15.2274C16.3924 15.0149 16.3909 14.671 16.18 14.4601Z" fill="#2D6851"/>
<path d="M18.1038 12.5365C17.8913 12.324 16.8047 12.0046 16.8047 12.0046C16.8047 12.0046 17.1241 13.0913 17.3366 13.3038C17.5475 13.5147 17.8929 13.5147 18.1038 13.3038C18.3163 13.0914 18.3147 12.7475 18.1038 12.5365Z" fill="#2D6851"/>
<path d="M19.2604 11.3802C19.4713 11.5911 19.8167 11.5911 20.0277 11.3802C20.2401 11.1678 20.2385 10.8238 20.0277 10.6129C19.8152 10.4005 18.7285 10.0811 18.7285 10.0811C18.7285 10.0811 19.0479 11.1678 19.2604 11.3802Z" fill="#2D6851"/>
<path d="M15.8262 16.7966C15.8262 16.7966 16.1456 17.8833 16.3581 18.0958C16.569 18.3067 16.9144 18.3067 17.1253 18.0958C17.3377 17.8833 17.3362 17.5394 17.1253 17.3285C16.9129 17.116 15.8262 16.7966 15.8262 16.7966Z" fill="#2D6851"/>
<path d="M19.0491 15.4049C18.8367 15.1925 17.75 14.873 17.75 14.873C17.75 14.873 18.0694 15.9597 18.2819 16.1722C18.4928 16.3831 18.8382 16.3831 19.0491 16.1722C19.2616 15.9597 19.26 15.6158 19.0491 15.4049Z" fill="#2D6851"/>
<path d="M20.973 13.4813C20.7605 13.2689 19.6738 12.9495 19.6738 12.9495C19.6738 12.9495 19.9932 14.0361 20.2057 14.2486C20.4166 14.4595 20.762 14.4595 20.973 14.2486C21.1854 14.0361 21.1839 13.6922 20.973 13.4813Z" fill="#2D6851"/>
<path d="M22.8968 11.5578C22.6843 11.3453 21.5977 11.0259 21.5977 11.0259C21.5977 11.0259 21.9171 12.1125 22.1295 12.325C22.3404 12.5359 22.6859 12.536 22.8968 12.325C23.1092 12.1126 23.1077 11.7687 22.8968 11.5578Z" fill="#2D6851"/>
<path d="M18.6953 17.7415C18.6953 17.7415 19.0147 18.8281 19.2272 19.0406C19.4381 19.2515 19.7835 19.2515 19.9945 19.0406C20.2069 18.8281 20.2053 18.4842 19.9945 18.2733C19.782 18.0609 18.6953 17.7415 18.6953 17.7415Z" fill="#2D6851"/>
<path d="M20.6172 15.8179C20.6172 15.8179 20.9366 16.9046 21.1491 17.117C21.36 17.3279 21.7054 17.3279 21.9163 17.117C22.1288 16.9046 22.1272 16.5607 21.9163 16.3498C21.7038 16.1373 20.6172 15.8179 20.6172 15.8179Z" fill="#2D6851"/>
<path d="M23.8402 14.4262C23.6277 14.2137 22.541 13.8943 22.541 13.8943C22.541 13.8943 22.8604 14.9809 23.0729 15.1935C23.2838 15.4044 23.6292 15.4044 23.8402 15.1935C24.0526 14.9809 24.051 14.6371 23.8402 14.4262Z" fill="#2D6851"/>
</svg>
