<svg width="40" height="40" viewBox="0 0 40 40" fill="none" xmlns="http://www.w3.org/2000/svg">
<path d="M16.249 17.5003C17.6238 17.5003 18.8258 15.848 19.4786 14.7369C19.6974 14.3645 20.3006 14.3645 20.5194 14.7369C21.1722 15.848 22.3742 17.5003 23.749 17.5003C25.1238 17.5003 26.3258 15.848 26.9786 14.7369C27.1974 14.3645 27.8006 14.3645 28.0194 14.7369C28.6722 15.848 29.8742 17.5003 31.249 17.5003C32.8054 17.5003 34.1403 16.5522 34.7077 15.202C35.0879 14.2972 34.7823 13.2899 34.3644 12.4019L33.0167 9.53801C32.192 7.78554 30.4294 6.66699 28.4926 6.66699H11.5054C9.56857 6.66699 7.80598 7.78554 6.98128 9.53799L5.63354 12.4019C5.21566 13.2899 4.91011 14.2972 5.2903 15.202C5.85767 16.5522 7.1926 17.5003 8.74899 17.5003C10.1238 17.5003 11.3258 15.848 11.9786 14.7369C12.1974 14.3645 12.8006 14.3645 13.0194 14.7369C13.6722 15.848 14.8742 17.5003 16.249 17.5003Z" fill="#2D6851"/>
<path fill-rule="evenodd" clip-rule="evenodd" d="M7.5 22.4999V19.0532C7.71855 19.0809 7.94131 19.0951 8.16744 19.0951C9.5344 19.0951 10.7795 18.5736 11.7147 17.7186C11.9367 17.5157 12.2865 17.5157 12.5085 17.7186C13.4437 18.5736 14.6889 19.0951 16.0558 19.0951C17.4228 19.0951 18.6679 18.5736 19.6031 17.7186C19.8251 17.5157 20.1749 17.5157 20.3969 17.7186C21.3321 18.5736 22.5772 19.0951 23.9442 19.0951C25.3111 19.0951 26.5563 18.5736 27.4915 17.7186C27.7135 17.5157 28.0633 17.5157 28.2853 17.7186C29.2205 18.5736 30.4656 19.0951 31.8326 19.0951C32.0587 19.0951 32.2814 19.0809 32.5 19.0532V22.4999C32.5 27.979 32.5 30.7186 30.9867 32.5625C30.7097 32.9001 30.4002 33.2096 30.0626 33.4866C28.7605 34.5553 27.0116 34.8693 24.1667 34.9615V28.3332C24.1667 26.032 22.3012 24.1665 20 24.1665C17.6988 24.1665 15.8333 26.032 15.8333 28.3332V34.9615C12.9884 34.8693 11.2395 34.5553 9.93738 33.4866C9.59982 33.2096 9.29029 32.9001 9.01326 32.5625C7.5 30.7186 7.5 27.979 7.5 22.4999ZM19.5028 34.9998C19.666 34.9999 19.8317 34.9999 20 34.9999C20.1683 34.9999 20.334 34.9999 20.4972 34.9998H19.5028Z" fill="#2D6851"/>
</svg>
