<svg width="30" height="30" viewBox="0 0 30 30" fill="none" xmlns="http://www.w3.org/2000/svg">
<path fill-rule="evenodd" clip-rule="evenodd" d="M1.95262 1.95262C0 3.90524 0 7.04794 0 13.3333V16.6667C0 22.9521 0 26.0948 1.95262 28.0474C3.90524 30 7.04794 30 13.3333 30H16.6667C22.9521 30 26.0948 30 28.0474 28.0474C30 26.0948 30 22.9521 30 16.6667V13.3333C30 7.04794 30 3.90524 28.0474 1.95262C26.0948 0 22.9521 0 16.6667 0H13.3333C7.04794 0 3.90524 0 1.95262 1.95262ZM23.125 12.2917C24.0455 12.2917 24.7917 11.5455 24.7917 10.625C24.7917 9.70452 24.0455 8.95833 23.125 8.95833C22.2045 8.95833 21.4583 9.70452 21.4583 10.625C21.4583 11.5455 22.2045 12.2917 23.125 12.2917ZM20.3019 11.9532C20.4931 11.7346 20.5887 11.6253 20.6862 11.6308C20.7837 11.6363 20.8789 11.7736 21.0694 12.0482C21.3035 12.3857 21.6186 12.6627 21.9865 12.8513C22.2843 13.0039 22.4332 13.0802 22.4516 13.1761C22.4699 13.2719 22.3743 13.3812 22.1829 13.5999L18.7681 17.5026C18.0233 18.3538 16.7354 18.4552 15.8665 17.7311L12.7288 15.1164C12.5871 14.9983 12.5163 14.9393 12.4351 14.9457C12.3539 14.9521 12.2932 15.0215 12.1717 15.1603L7.39907 20.6148C6.94447 21.1343 6.15477 21.187 5.63522 20.7324C5.11567 20.2778 5.06303 19.4881 5.51763 18.9685L10.8153 12.9141C11.5601 12.0629 12.848 11.9614 13.7169 12.6855L16.8545 15.3002C16.9962 15.4183 17.0671 15.4773 17.1483 15.471C17.2294 15.4646 17.2902 15.3951 17.4116 15.2563L20.3019 11.9532Z" fill="#2D6851"/>
</svg>
