<svg width="34" height="33" viewBox="0 0 34 33" fill="none" xmlns="http://www.w3.org/2000/svg">
<path d="M22.9553 1.72792C21.0971 -0.184978 17.9456 0.274264 16.6097 2.58236L11.9461 9.4906C10.661 11.7108 9.98438 14.2307 9.98438 16.7959V23.0372C9.98438 25.7123 10.572 29.2809 13.5451 30.9102C15.7913 32.1411 18.4076 32.3005 21.0948 31.7034L21.1262 31.696L26.1527 30.4422C26.169 30.4381 26.1852 30.4337 26.2013 30.429C27.9053 29.9303 29.3508 29.2564 30.458 28.1426C31.5799 27.014 32.2394 25.5512 32.5937 23.6925L32.5991 23.6624L33.3999 18.8201C33.4071 18.7768 33.412 18.7333 33.4145 18.6895C33.6311 15.0085 30.8716 11.8268 27.1969 11.5206L27.1717 11.5187H22.2668C21.9324 11.5187 21.6923 11.1969 21.7875 10.8763L23.1892 6.15868C23.0982 6.53224 23.2026 6.1091 23.2082 6.08403C23.5695 4.45824 24.0056 2.77278 23.1892 1.96873L22.9553 1.72792Z" fill="#2D6851"/>
<path fill-rule="evenodd" clip-rule="evenodd" d="M8.48978 13.6514C8.34753 14.5483 8.27531 15.4581 8.27531 16.3728V23.8083C8.27531 25.2376 8.41612 26.8809 8.89094 28.434H2.46484C1.52203 28.434 1.05063 28.434 0.757737 28.1411C0.464844 27.8482 0.464844 27.3768 0.464844 26.434V15.6514C0.464844 14.7086 0.464844 14.2372 0.757737 13.9443C1.05063 13.6514 1.52203 13.6514 2.46484 13.6514H8.48978Z" fill="#2D6851"/>
</svg>
