<svg width="38" height="37" viewBox="0 0 38 37" fill="none" xmlns="http://www.w3.org/2000/svg">
<path d="M34.8611 16.4722L33.875 14.3195L31.7222 13.3333L33.875 12.3472L34.8611 10.1945L35.8472 12.3472L38 13.3333L35.8472 14.3195L34.8611 16.4722ZM29.6667 9.38888L28.1667 6.19442L24.9722 4.69442L28.1667 3.19446L29.6667 0L31.1667 3.19446L34.3611 4.69442L31.1667 6.19442L29.6667 9.38888ZM13 36.6667C12.0648 36.6667 11.2708 36.3403 10.618 35.6875C9.96526 35.0347 9.63888 34.2407 9.63888 33.3055H16.3611C16.3611 34.2407 16.0347 35.0347 15.382 35.6875C14.7292 36.3403 13.9352 36.6667 13 36.6667ZM6.27779 31.0278V28.25H19.7222V31.0278H6.27779ZM6.55554 26C4.69443 24.8241 3.2199 23.3194 2.13196 21.4861C1.04399 19.6528 0.5 17.6111 0.5 15.3611C0.5 11.9444 1.72917 9.00692 4.1875 6.54858C6.64583 4.09025 9.58333 2.86108 13 2.86108C16.4167 2.86108 19.3542 4.09025 21.8125 6.54858C24.2708 9.00692 25.5 11.9444 25.5 15.3611C25.5 17.6111 24.9607 19.6528 23.882 21.4861C22.8032 23.3194 21.3241 24.8241 19.4445 26H6.55554Z" fill="#2D6851"/>
</svg>
