<svg width="92" height="92" viewBox="0 0 92 92" fill="none" xmlns="http://www.w3.org/2000/svg">
<g filter="url(#filter0_d_224_9083)">
<circle cx="46" cy="40" r="36" fill="#EDF7F3"/>
</g>
<g filter="url(#filter1_d_224_9083)">
<path d="M40.287 41.1895L43.1859 39.6639L40.287 38.1382L42.0346 35.3675L38.7613 35.4956L38.8894 32.2222L36.1186 33.9699L34.5929 31.071L33.0672 33.9699L30.2965 32.2222L30.4246 35.4956L27.1512 35.3675L28.8989 38.1382L26 39.6639L28.8989 41.1896L27.1512 43.9604L30.4246 43.8323L30.2965 47.1055L33.0672 45.3579L34.5929 48.2569L36.1186 45.358L38.8894 47.1055L38.7613 43.8322L42.0346 43.9603L40.287 41.1895ZM34.5929 43.9604C32.2201 43.9604 30.2965 42.0367 30.2965 39.6639C30.2965 37.2911 32.2201 35.3675 34.5929 35.3675C36.9658 35.3675 38.8894 37.2911 38.8894 39.6639C38.8894 42.0367 36.9658 43.9604 34.5929 43.9604Z" fill="#2D6851"/>
<path d="M61.989 56.6723C61.1976 57.2288 60.6258 57.6309 59.3299 57.6309C58.0339 57.6309 57.4621 57.2288 56.6706 56.6723C55.793 56.0553 54.7007 55.2874 52.6636 55.2874C50.6263 55.2874 49.5341 56.0554 48.6566 56.6723C47.8651 57.2288 47.2934 57.6309 45.9976 57.6309C44.7018 57.6309 44.13 57.2289 43.3386 56.6723C42.461 56.0554 41.3688 55.2874 39.3317 55.2874C37.2945 55.2874 36.2024 56.0554 35.3248 56.6723C34.5334 57.2288 33.9616 57.6309 32.6658 57.6309C31.3701 57.6309 30.7983 57.2289 30.0069 56.6723C29.1294 56.0553 28.0373 55.2874 26 55.2874V57.6309C27.2957 57.6309 27.8676 58.0329 28.659 58.5894C29.5365 59.2064 30.6287 59.9744 32.6658 59.9744C34.7031 59.9744 35.7952 59.2064 36.6728 58.5894C37.4642 58.033 38.036 57.6309 39.3317 57.6309C40.6275 57.6309 41.1992 58.0329 41.9906 58.5894C42.8682 59.2064 43.9604 59.9744 45.9975 59.9744C48.0346 59.9744 49.1269 59.2065 50.0044 58.5894C50.7958 58.033 51.3676 57.6309 52.6635 57.6309C53.9593 57.6309 54.5312 58.0329 55.3227 58.5894C56.2003 59.2065 57.2925 59.9744 59.3298 59.9744C61.367 59.9744 62.4592 59.2065 63.3368 58.5894C64.1284 58.033 64.7002 57.6309 65.9961 57.6309V55.2874C63.9588 55.2874 62.8667 56.0552 61.989 56.6723Z" fill="#2D6851"/>
<path d="M64.7852 28.5593C63.4965 25.7958 61.3226 23.6239 58.5948 22.3452L59.1473 20.8273L56.945 20.0256L56.3922 21.5442C50.0247 19.8589 43.287 23.2907 40.9913 29.5981L40.5182 30.8979L41.8781 31.1508C44.0756 31.5597 46.1766 32.3244 48.1226 33.4237L48.3962 33.5783L48.7103 33.5752C48.7498 33.5748 48.7894 33.5747 48.8288 33.5747C49.8632 33.5747 50.8853 33.7069 51.8726 33.9619L46.4121 48.9642C46.274 48.9625 46.136 48.96 45.9977 48.96C42.3771 48.96 38.8212 49.5529 35.429 50.7222C33.2919 51.4588 31.2463 52.4159 29.3145 53.578C30.207 53.9493 30.8647 54.4111 31.3543 54.7554C32.0395 55.2372 32.1112 55.2875 32.6655 55.2875C33.2198 55.2875 33.2914 55.2372 33.9764 54.7555C34.9403 54.0778 36.5529 52.944 39.3314 52.944C42.1098 52.944 43.7224 54.0779 44.686 54.7554C45.3712 55.2372 45.4428 55.2875 45.9971 55.2875C46.5515 55.2875 46.6231 55.2372 47.308 54.7555C48.272 54.0779 49.8846 52.944 52.6631 52.944C55.4419 52.944 57.0546 54.078 58.0182 54.7554C58.7033 55.2372 58.775 55.2875 59.3294 55.2875C59.8839 55.2875 59.9555 55.2372 60.6404 54.7555C61.1302 54.4111 61.7881 53.9493 62.6808 53.5779C60.7489 52.4158 58.7035 51.4587 56.5663 50.722C54.0734 49.8627 51.492 49.3161 48.8616 49.0859L54.0747 34.7632C55.0301 35.2193 55.9291 35.8012 56.7458 36.5L56.9845 36.7043L57.2934 36.7618C59.491 37.1706 61.5919 37.9353 63.538 39.0346L64.7424 39.7149L65.2155 38.4151C66.393 35.1798 66.2402 31.6796 64.7852 28.5593Z" fill="#2D6851"/>
</g>
<defs>
<filter id="filter0_d_224_9083" x="0" y="0" width="92" height="92" filterUnits="userSpaceOnUse" color-interpolation-filters="sRGB">
<feFlood flood-opacity="0" result="BackgroundImageFix"/>
<feColorMatrix in="SourceAlpha" type="matrix" values="0 0 0 0 0 0 0 0 0 0 0 0 0 0 0 0 0 0 127 0" result="hardAlpha"/>
<feOffset dy="6"/>
<feGaussianBlur stdDeviation="5"/>
<feComposite in2="hardAlpha" operator="out"/>
<feColorMatrix type="matrix" values="0 0 0 0 0.10816 0 0 0 0 0.291667 0 0 0 0 0.22013 0 0 0 0.3 0"/>
<feBlend mode="normal" in2="BackgroundImageFix" result="effect1_dropShadow_224_9083"/>
<feBlend mode="normal" in="SourceGraphic" in2="effect1_dropShadow_224_9083" result="shape"/>
</filter>
<filter id="filter1_d_224_9083" x="16" y="16.0256" width="60" height="59.9488" filterUnits="userSpaceOnUse" color-interpolation-filters="sRGB">
<feFlood flood-opacity="0" result="BackgroundImageFix"/>
<feColorMatrix in="SourceAlpha" type="matrix" values="0 0 0 0 0 0 0 0 0 0 0 0 0 0 0 0 0 0 127 0" result="hardAlpha"/>
<feOffset dy="6"/>
<feGaussianBlur stdDeviation="5"/>
<feComposite in2="hardAlpha" operator="out"/>
<feColorMatrix type="matrix" values="0 0 0 0 0.10816 0 0 0 0 0.291667 0 0 0 0 0.22013 0 0 0 0.3 0"/>
<feBlend mode="normal" in2="BackgroundImageFix" result="effect1_dropShadow_224_9083"/>
<feBlend mode="normal" in="SourceGraphic" in2="effect1_dropShadow_224_9083" result="shape"/>
</filter>
</defs>
</svg>
