<svg width="20" height="18" viewBox="0 0 20 18" fill="none" xmlns="http://www.w3.org/2000/svg">
<path d="M12.0691 3.47322C12.9939 4.05303 13.6423 5.03418 13.7604 6.17308C14.1375 6.34929 14.5561 6.45063 14.9999 6.45063C16.62 6.45063 17.9331 5.13751 17.9331 3.51765C17.9331 1.89753 16.62 0.584412 14.9999 0.584412C13.3952 0.584911 12.0936 1.87457 12.0691 3.47322ZM10.1475 9.47896C11.7676 9.47896 13.0807 8.16559 13.0807 6.54572C13.0807 4.92586 11.7674 3.61274 10.1475 3.61274C8.52764 3.61274 7.21378 4.92611 7.21378 6.54597C7.21378 8.16584 8.52764 9.47896 10.1475 9.47896ZM11.3917 9.67888H8.90278C6.8319 9.67888 5.14714 11.3639 5.14714 13.4348V16.4786L5.15487 16.5263L5.36453 16.5919C7.34082 17.2094 9.05778 17.4153 10.471 17.4153C13.2312 17.4153 14.8312 16.6283 14.9297 16.5782L15.1257 16.4791H15.1466V13.4348C15.1474 11.3639 13.4626 9.67888 11.3917 9.67888ZM16.2446 6.6508H13.7749C13.7482 7.63895 13.3263 8.52875 12.6592 9.16871C14.4999 9.71607 15.8468 11.423 15.8468 13.4393V14.3772C18.2853 14.2879 19.6905 13.5968 19.7831 13.5503L19.979 13.451H20V10.4062C20 8.33557 18.3152 6.6508 16.2446 6.6508ZM5.00062 6.45113C5.57444 6.45113 6.10832 6.28365 6.56059 5.99836C6.70436 5.06064 7.20704 4.24122 7.92512 3.68313C7.92812 3.62822 7.93336 3.5738 7.93336 3.51839C7.93336 1.89828 6.61999 0.58516 5.00062 0.58516C3.38026 0.58516 2.06739 1.89828 2.06739 3.51839C2.06739 5.13776 3.38026 6.45113 5.00062 6.45113ZM7.63484 9.16871C6.97092 8.532 6.55061 7.64694 6.51991 6.66478C6.4283 6.65804 6.3377 6.6508 6.24435 6.6508H3.75565C1.68476 6.6508 0 8.33557 0 10.4062V13.4505L0.00773743 13.4974L0.217397 13.5636C1.80282 14.0585 3.21777 14.2866 4.44677 14.3585V13.4393C4.44727 11.423 5.79359 9.71657 7.63484 9.16871Z" fill="#2D6851"/>
</svg>
