<svg width="14" height="16" viewBox="0 0 14 16" fill="none" xmlns="http://www.w3.org/2000/svg">
<path d="M13.3186 3.67198L7.27227 0.0749531C7.10423 -0.0249844 6.89495 -0.0249844 6.72692 0.0749531L0.680578 3.67198C0.518984 3.76814 0.419922 3.94233 0.419922 4.13036V6.1837C0.419922 10.5085 2.91867 14.4586 6.80702 15.964C6.9308 16.012 7.06823 16.012 7.19214 15.964C11.071 14.4623 13.5792 10.5208 13.5792 6.1837V4.13036C13.5792 3.9423 13.4802 3.76814 13.3186 3.67198ZM9.63448 6.80155L6.29183 10.1442C6.08355 10.3525 5.74586 10.3525 5.53758 10.1442L4.36445 8.97114C4.15617 8.76289 4.15617 8.42517 4.36445 8.21689C4.57273 8.00864 4.91045 8.00864 5.1187 8.21689L5.91467 9.01286L8.88023 6.0473C9.08848 5.83905 9.4262 5.83905 9.63448 6.0473C9.8428 6.25561 9.8428 6.5933 9.63448 6.80155Z" fill="#2D6851"/>
</svg>
