<?xml version="1.0" encoding="utf-8"?>
<!-- Generator: Adobe Illustrator 24.3.0, SVG Export Plug-In . SVG Version: 6.00 Build 0)  -->
<svg version="1.1" id="Layer_1" xmlns="http://www.w3.org/2000/svg" xmlns:xlink="http://www.w3.org/1999/xlink" x="0px" y="0px"
	 viewBox="0 0 24 22" style="enable-background:new 0 0 24 22;" xml:space="preserve">
<style type="text/css">
	.st0{fill:#2D6851;}
</style>
<g>
	<path class="st0" d="M17.7,10.9c-1.8-0.3-3.6-0.2-5.4,0.4c-0.3,1.5-0.8,2.9-1.6,4.2c-0.3,0.6-0.7,1.1-1.2,1.6
		c-0.9,1.2-2.2,2.1-3.5,2.9c1.6,1,3.5,1.6,5.5,1.7c1.9-1.7,3.4-3.9,4.6-6.4C16.9,13.9,17.4,12.4,17.7,10.9z"/>
	<path class="st0" d="M7.9,1.8c0,1,0.1,1.9,0.4,2.8c1.6-0.5,3.2-0.9,4.9-1c2.3-0.2,4.6-0.1,6.8,0.3c-2-2.3-4.9-3.7-8.1-3.7
		c-1.4,0-2.7,0.3-3.9,0.7C7.9,1.2,7.9,1.5,7.9,1.8z"/>
	<path class="st0" d="M13.3,4.8c-1.6,0.2-3.1,0.5-4.6,1c0.7,1.7,1.7,3.2,3.1,4.4C15.2,9,19,9.4,22.1,11.3c0.1,0.1,0.3,0.2,0.4,0.3
		c0-0.2,0-0.4,0-0.5c0-2-0.6-3.9-1.5-5.5C18.7,4.8,16,4.5,13.3,4.8z"/>
	<path class="st0" d="M21.5,12.3c-0.8-0.5-1.7-0.9-2.6-1.1c-0.3,1.6-0.9,3.2-1.6,4.7c-1,2.1-2.3,4.1-3.8,5.7
		c4.5-0.7,8.1-4.2,8.9-8.7C22.1,12.7,21.8,12.5,21.5,12.3z"/>
	<path class="st0" d="M4.9,19.3C6.1,18.7,7.1,18,8,17c-1.2-1.1-2.3-2.4-3.2-3.8c-1.4-2-2.4-4.2-3-6.4C1.3,8.2,1,9.6,1,11
		C1,14.3,2.5,17.3,4.9,19.3z"/>
	<path class="st0" d="M5.9,12.6c0.9,1.3,1.9,2.5,3,3.5c0.3-0.4,0.5-0.7,0.8-1.1c0.7-1.2,1.2-2.4,1.4-3.7C8.3,8.9,6.7,5.5,6.7,1.8
		c0-0.1,0-0.2,0-0.3c-1.6,0.9-3,2.1-3.9,3.7C3.2,7.7,4.3,10.3,5.9,12.6z"/>
</g>
</svg>
