<?xml version="1.0" encoding="utf-8"?>
<!-- Generator: Adobe Illustrator 24.3.0, SVG Export Plug-In . SVG Version: 6.00 Build 0)  -->
<svg version="1.1" id="Layer_1" xmlns="http://www.w3.org/2000/svg" xmlns:xlink="http://www.w3.org/1999/xlink" x="0px" y="0px"
	 viewBox="0 0 24 22" style="enable-background:new 0 0 24 22;" xml:space="preserve">
<style type="text/css">
	.st0{fill:#2D6851;}
</style>
<path class="st0" d="M7.9,9.2c-3.4,0-6.2,2.8-6.2,6.2s2.8,6.2,6.2,6.2s6.2-2.8,6.2-6.2S11.4,9.2,7.9,9.2z M7.9,19.2
	c-2.1,0-3.7-1.7-3.7-3.7s1.7-3.7,3.7-3.7s3.7,1.7,3.7,3.7S10,19.2,7.9,19.2z"/>
<path class="st0" d="M7.9,12.9c-1.4,0-2.5,1.1-2.5,2.5s1.1,2.5,2.5,2.5c1.4,0,2.5-1.1,2.5-2.5S9.3,12.9,7.9,12.9z M7.9,16
	c-0.3,0-0.6-0.3-0.6-0.6s0.3-0.6,0.6-0.6c0.3,0,0.6,0.3,0.6,0.6S8.3,16,7.9,16z"/>
<path class="st0" d="M2.3,1.6h2l1.8,6.5C6.7,8,7.3,7.9,7.9,7.9c1.5,0,3,0.5,4.1,1.2h3.4V7.3c0-1-0.8-1.9-1.9-1.9H6.7L5.4,0.8
	C5.3,0.5,5.1,0.3,4.8,0.3H2.3C2,0.3,1.7,0.6,1.7,1C1.7,1.3,2,1.6,2.3,1.6z"/>
<path class="st0" d="M22.9,17c-0.2-0.3-0.5-0.4-0.8-0.3l-1.9,1L18,13.4v-1.1c0-1-0.8-1.9-1.9-1.9h-2.6c0.9,1,1.6,2.3,1.8,3.7h0.2V18
	c-0.7,0.3-1.2,1-1.2,1.8c0,1,0.8,1.9,1.9,1.9c1,0,1.9-0.8,1.9-1.9c0-0.8-0.5-1.5-1.2-1.8v-3.9H17l2.3,4.6c0.2,0.3,0.5,0.4,0.8,0.3
	l2.5-1.2C23,17.7,23.1,17.3,22.9,17z"/>
</svg>
