<svg width="29" height="36" viewBox="0 0 29 36" fill="none" xmlns="http://www.w3.org/2000/svg">
<path d="M12.4646 18.976L14.5733 17.3929L16.6503 18.976C16.9657 19.2199 17.2828 19.2343 17.6015 19.019C17.9202 18.8037 18.0256 18.5062 17.9175 18.1264L17.1134 15.5037L19.3317 13.7933C19.626 13.5515 19.7122 13.2512 19.5902 12.8923C19.4682 12.5334 19.2151 12.354 18.8308 12.354H16.1675L15.3157 9.65199C15.205 9.28623 14.957 9.10039 14.5716 9.09444C14.1862 9.08853 13.936 9.27437 13.8209 9.65199L12.9513 12.354H10.3157C9.92884 12.354 9.67441 12.5334 9.55244 12.8923C9.43044 13.2512 9.51659 13.5515 9.8109 13.7933L12.0292 15.5037L11.2152 18.1264C11.1 18.5062 11.2053 18.8037 11.5309 19.019C11.8564 19.2343 12.1677 19.2199 12.4646 18.976ZM6.65448 35.4029C6.13173 35.5825 5.65222 35.5134 5.21594 35.1958C4.77963 34.8782 4.56148 34.4454 4.56148 33.8975V23.3244C3.33201 22.0342 2.42455 20.5956 1.8391 19.0087C1.25366 17.4219 0.960938 15.7917 0.960938 14.1182C0.960938 10.2859 2.27158 7.05906 4.89285 4.43778C7.51413 1.8165 10.7409 0.505859 14.5733 0.505859C18.4056 0.505859 21.6335 1.8165 24.257 4.43778C26.8805 7.05906 28.1922 10.2859 28.1922 14.1182C28.1922 15.7917 27.8984 17.4219 27.3107 19.0087C26.7231 20.5956 25.8145 22.0342 24.5851 23.3244V33.8975C24.5851 34.4454 24.3669 34.8782 23.9306 35.1958C23.4943 35.5134 23.0148 35.5825 22.4921 35.4029L14.5733 32.7649L6.65448 35.4029ZM14.5733 24.5741C17.4889 24.5741 19.9605 23.5615 21.988 21.5362C24.0155 19.511 25.0292 17.0383 25.0292 14.1182C25.0292 11.2025 24.0155 8.73094 21.988 6.70344C19.9605 4.67597 17.4889 3.66223 14.5733 3.66223C11.6576 3.66223 9.18604 4.67597 7.15856 6.70344C5.13109 8.73094 4.11735 11.2025 4.11735 14.1182C4.11735 17.0383 5.13109 19.511 7.15856 21.5362C9.18604 23.5615 11.6576 24.5741 14.5733 24.5741Z" fill="#2D6851"/>
</svg>
