<?xml version="1.0" encoding="utf-8"?>
<!-- Generator: Adobe Illustrator 24.3.0, SVG Export Plug-In . SVG Version: 6.00 Build 0)  -->
<svg version="1.1" id="Layer_1" xmlns="http://www.w3.org/2000/svg" xmlns:xlink="http://www.w3.org/1999/xlink" x="0px" y="0px"
	 viewBox="0 0 24 22" style="enable-background:new 0 0 24 22;" xml:space="preserve">
<style type="text/css">
	.st0{fill:#2D6851;}
</style>
<path class="st0" d="M5.6,20.2c-0.2,0.5,0.1,0.9,0.5,1.1c0.4,0.2,0.9-0.1,1.1-0.5l1.1-3.1H6.5L5.6,20.2z"/>
<path class="st0" d="M16.6,17.6h-1.7l1.1,3.1c0.2,0.4,0.6,0.7,1.1,0.5c0.4-0.2,0.7-0.6,0.5-1L16.6,17.6z"/>
<path class="st0" d="M10.7,20.4c0,0.5,0.4,0.8,0.8,0.8c0.5,0,0.8-0.4,0.8-0.8v-2.8h-1.6V20.4z"/>
<path class="st0" d="M17.2,15.6H5.9c-0.5,0-0.8,0.4-0.8,0.8c0,0.5,0.4,0.8,0.8,0.8h11.3c0.5,0,0.8-0.4,0.8-0.8
	C18,15.9,17.7,15.6,17.2,15.6z"/>
<path class="st0" d="M11,2c-0.4-0.8-0.1-1.2,0.3-1.3c0.1,0,0.2,0,0.3,0.2c0,0.1,0,0.2-0.2,0.3c-0.3,0.1-0.1,0.5,0,0.7
	c0.4,0.8,0.1,1.2-0.3,1.3c-0.1,0-0.2-0.1-0.2-0.2c0-0.1,0.1-0.2,0.2-0.2C11.3,2.7,11.1,2.3,11,2z"/>
<path class="st0" d="M12.7,2c-0.4-0.8-0.1-1.2,0.3-1.3c0.1,0,0.2,0,0.3,0.2c0,0.1,0,0.2-0.2,0.3c-0.3,0.1-0.1,0.5,0,0.7
	c0.4,0.8,0.1,1.2-0.3,1.3c-0.1,0-0.2-0.1-0.2-0.2c0-0.1,0.1-0.2,0.2-0.2C13,2.7,12.8,2.3,12.7,2z"/>
<path class="st0" d="M21.3,5c0,0.1-0.1,0.2-0.2,0.2h-4C17,5.8,16.5,6.2,16,6.2h-0.9c-0.5,0-1-0.4-1.1-0.9h-0.7
	c0,0.5-0.4,0.9-0.9,0.9c-0.3,0-0.6-0.1-0.7-0.4c-0.2,0.2-0.4,0.4-0.7,0.4c-0.3,0-0.6-0.1-0.7-0.4C10,6,9.8,6.2,9.5,6.2
	C9,6.2,8.6,5.8,8.6,5.3H7.9v0.3c0,0.3-0.3,0.6-0.6,0.6H6.7c-0.3,0-0.6-0.3-0.6-0.6V5.3H5.4C5.3,5.3,5.2,5.2,5.2,5s0.1-0.2,0.2-0.2
	h0.6V4.5c0-0.3,0.3-0.6,0.6-0.6h0.7c0.3,0,0.6,0.3,0.6,0.6v0.3h0.6c0-0.5,0.4-0.9,0.9-0.9c0.3,0,0.6,0.1,0.7,0.4
	c0.2-0.2,0.4-0.4,0.7-0.4c0.3,0,0.6,0.1,0.7,0.4c0.2-0.2,0.4-0.4,0.7-0.4c0.5,0,0.9,0.4,0.9,0.9H14c0.1-0.5,0.6-0.9,1.1-0.9H16
	c0.5,0,1,0.4,1.1,0.9h4C21.2,4.8,21.3,4.9,21.3,5z"/>
<path class="st0" d="M7.6,2C7.2,1.3,7.5,0.8,7.8,0.7c0.1,0,0.2,0,0.3,0.2c0,0.1,0,0.2-0.2,0.3C7.7,1.2,7.9,1.6,8,1.8
	c0.4,0.8,0.1,1.2-0.3,1.3C7.5,3.1,7.4,3.1,7.4,3c0-0.1,0.1-0.2,0.2-0.2C7.8,2.7,7.7,2.3,7.6,2z"/>
<path class="st0" d="M20.8,8c0,0.6-0.8,0.9-1.2,0.5c-0.1-0.1-0.3-0.2-0.5-0.2c-0.4,2.4-1.9,4.4-3.9,5.5l0.5,1.4H14l-0.3-0.8
	c-0.4,0.1-0.9,0.2-1.3,0.3v0.6h-1.6v-0.6c-0.5,0-0.9-0.1-1.3-0.3l-0.3,0.8H7.4l0.5-1.4c-2-1.1-3.5-3.1-3.9-5.5
	c-0.2,0-0.3,0.1-0.5,0.3C3,8.9,2.3,8.6,2.3,8c0-0.1,0.1-0.2,0.2-0.2c0.1,0,0.2,0.1,0.2,0.2c0,0.2,0.3,0.4,0.5,0.2
	C3.4,8,3.6,7.9,3.9,7.8c0-0.1,0-0.1,0-0.2c0-0.2,0.1-0.5,0.2-0.7c0.2-0.2,0.4-0.3,0.6-0.3h13.7c0.2,0,0.5,0.1,0.6,0.3
	c0.2,0.2,0.2,0.4,0.2,0.7c0,0.1,0,0.1,0,0.2c0.3,0.1,0.5,0.2,0.7,0.4c0.2,0.2,0.5,0,0.5-0.2c0-0.1,0.1-0.2,0.2-0.2
	C20.7,7.8,20.8,7.9,20.8,8z"/>
<path class="st0" d="M9.3,2C8.9,1.3,9.2,0.8,9.6,0.7c0.1,0,0.2,0,0.3,0.2c0,0.1,0,0.2-0.2,0.3c-0.2,0.1-0.1,0.5,0,0.7
	c0.4,0.8,0.1,1.2-0.3,1.3C9.3,3.2,9.2,3.1,9.1,3c0-0.1,0.1-0.2,0.2-0.2C9.6,2.7,9.4,2.3,9.3,2z"/>
</svg>
