<svg width="92" height="92" viewBox="0 0 92 92" fill="none" xmlns="http://www.w3.org/2000/svg">
<g filter="url(#filter0_d_224_9104)">
<circle cx="46" cy="40" r="36" fill="#EDF7F3"/>
<g filter="url(#filter1_d_224_9104)">
<path fill-rule="evenodd" clip-rule="evenodd" d="M52.5069 43.9606C54.0552 41.8855 54.9719 39.3114 54.9719 36.5233C54.9719 29.6482 49.3985 24.0748 42.5233 24.0748C35.6482 24.0748 30.0748 29.6482 30.0748 36.5233C30.0748 43.3984 35.6482 48.9718 42.5233 48.9718C45.3115 48.9718 47.8855 48.0552 49.9606 46.5068L52.5069 43.9606ZM54.1552 45.2211C55.971 42.7966 57.0466 39.7855 57.0466 36.5233C57.0466 28.5023 50.5443 22 42.5233 22C34.5023 22 28 28.5023 28 36.5233C28 44.5442 34.5023 51.0466 42.5233 51.0466C45.7855 51.0466 48.7965 49.971 51.221 48.1552L52.7011 49.6353L57.6243 56.5278C58.8868 58.2954 61.4344 58.5063 62.9703 56.9703C64.5063 55.4344 64.2954 52.8869 62.5279 51.6243L55.635 46.7008L54.1552 45.2211ZM52.8971 36.5233C52.8971 42.2526 48.2526 46.897 42.5233 46.897C36.794 46.897 32.1495 42.2526 32.1495 36.5233C32.1495 30.794 36.794 26.1495 42.5233 26.1495C48.2526 26.1495 52.8971 30.794 52.8971 36.5233Z" fill="#2D6851"/>
</g>
</g>
<defs>
<filter id="filter0_d_224_9104" x="0" y="0" width="92" height="92" filterUnits="userSpaceOnUse" color-interpolation-filters="sRGB">
<feFlood flood-opacity="0" result="BackgroundImageFix"/>
<feColorMatrix in="SourceAlpha" type="matrix" values="0 0 0 0 0 0 0 0 0 0 0 0 0 0 0 0 0 0 127 0" result="hardAlpha"/>
<feOffset dy="6"/>
<feGaussianBlur stdDeviation="5"/>
<feComposite in2="hardAlpha" operator="out"/>
<feColorMatrix type="matrix" values="0 0 0 0 0.10816 0 0 0 0 0.291667 0 0 0 0 0.22013 0 0 0 0.3 0"/>
<feBlend mode="normal" in2="BackgroundImageFix" result="effect1_dropShadow_224_9104"/>
<feBlend mode="normal" in="SourceGraphic" in2="effect1_dropShadow_224_9104" result="shape"/>
</filter>
<filter id="filter1_d_224_9104" x="18" y="18" width="56" height="56" filterUnits="userSpaceOnUse" color-interpolation-filters="sRGB">
<feFlood flood-opacity="0" result="BackgroundImageFix"/>
<feColorMatrix in="SourceAlpha" type="matrix" values="0 0 0 0 0 0 0 0 0 0 0 0 0 0 0 0 0 0 127 0" result="hardAlpha"/>
<feOffset dy="6"/>
<feGaussianBlur stdDeviation="5"/>
<feComposite in2="hardAlpha" operator="out"/>
<feColorMatrix type="matrix" values="0 0 0 0 0.10816 0 0 0 0 0.291667 0 0 0 0 0.22013 0 0 0 0.3 0"/>
<feBlend mode="normal" in2="BackgroundImageFix" result="effect1_dropShadow_224_9104"/>
<feBlend mode="normal" in="SourceGraphic" in2="effect1_dropShadow_224_9104" result="shape"/>
</filter>
</defs>
</svg>
