<svg width="36" height="38" viewBox="0 0 36 38" fill="none" xmlns="http://www.w3.org/2000/svg">
<path d="M4.45382 35.006C3.40429 35.006 2.50996 34.6364 1.77082 33.8973C1.03168 33.1582 0.662109 32.2639 0.662109 31.2143V8.12016C0.662109 7.07063 1.03168 6.1763 1.77082 5.43716C2.50996 4.69802 3.40429 4.32845 4.45382 4.32845H6.0009V2.77141C6.0009 2.2726 6.17392 1.85185 6.51994 1.50916C6.86594 1.16646 7.28835 0.995117 7.78715 0.995117C8.28593 0.995117 8.70667 1.16646 9.04936 1.50916C9.39205 1.85185 9.5634 2.2726 9.5634 2.77141V4.32845H22.4384V2.77141C22.4384 2.2726 22.6114 1.85185 22.9574 1.50916C23.3034 1.16646 23.7258 0.995117 24.2247 0.995117C24.7234 0.995117 25.1442 1.16646 25.4869 1.50916C25.8296 1.85185 26.0009 2.2726 26.0009 2.77141V4.32845H27.548C28.5975 4.32845 29.4918 4.69802 30.231 5.43716C30.9701 6.1763 31.3397 7.07063 31.3397 8.12016V16.1346C31.3397 16.6666 31.1567 17.1156 30.7908 17.4815C30.4248 17.8475 29.9758 18.0305 29.4438 18.0305C28.9118 18.0305 28.4628 17.8475 28.0969 17.4815C27.731 17.1156 27.548 16.6666 27.548 16.1346V14.6672H4.45382V31.2143H13.6766C14.2086 31.2143 14.6576 31.3973 15.0235 31.7632C15.3895 32.1292 15.5724 32.5782 15.5724 33.1102C15.5724 33.6422 15.3895 34.0912 15.0235 34.4571C14.6576 34.8231 14.2086 35.006 13.6766 35.006H4.45382ZM27.6676 38.4291C25.9097 38.4291 24.3327 37.956 22.9366 37.0097C21.5405 36.0634 20.5169 34.8352 19.8659 33.3249C19.6938 32.9861 19.7302 32.651 19.9751 32.3195C20.22 31.988 20.5456 31.8222 20.952 31.8222C21.4206 31.8222 21.8578 31.9519 22.2636 32.2112C22.6694 32.4706 23.0227 32.7775 23.3234 33.132C23.7769 33.8481 24.385 34.417 25.1477 34.8385C25.9103 35.26 26.7503 35.4707 27.6676 35.4707C29.2056 35.4707 30.5192 34.9262 31.6082 33.8371C32.6973 32.748 33.2418 31.4345 33.2418 29.8964C33.2418 28.3517 32.699 27.0365 31.6132 25.9508C30.5275 24.865 29.2123 24.3222 27.6676 24.3222C26.9218 24.3222 26.2299 24.4514 25.5919 24.7098C24.954 24.9683 24.3977 25.3315 23.923 25.7995H24.8107C25.1984 25.7995 25.5235 25.9342 25.7862 26.2035C26.0489 26.4728 26.1802 26.8312 26.1802 27.2787C26.1802 27.6996 26.0389 28.0513 25.7563 28.3339C25.4737 28.6165 25.122 28.7578 24.7011 28.7578H20.8016C20.2696 28.7578 19.8206 28.5749 19.4547 28.2089C19.0887 27.843 18.9058 27.394 18.9058 26.862V22.9625C18.9058 22.5416 19.0537 22.1899 19.3496 21.9073C19.6455 21.6247 20.0471 21.4834 20.5544 21.4834C20.9288 21.4834 21.2406 21.6081 21.49 21.8575C21.7394 22.1069 21.8641 22.4188 21.8641 22.7932V23.6491C22.6075 22.9535 23.4775 22.3987 24.4742 21.9847C25.4709 21.5708 26.5353 21.3638 27.6676 21.3638C30.0329 21.3638 32.0463 22.1946 33.7079 23.8561C35.3694 25.5176 36.2002 27.5311 36.2002 29.8964C36.2002 32.2551 35.3694 34.2669 33.7079 35.9317C32.0463 37.5966 30.0329 38.4291 27.6676 38.4291Z" fill="#2D6851"/>
</svg>
