<svg width="24" height="30" viewBox="0 0 24 30" fill="none" xmlns="http://www.w3.org/2000/svg">
<path fill-rule="evenodd" clip-rule="evenodd" d="M0.333984 8V29.9344L2.79298 27.0991C3.00572 26.8538 3.1121 26.7312 3.24988 26.7318C3.38767 26.7325 3.49287 26.8562 3.70326 27.1035L5.71031 29.4628C5.92254 29.7123 6.02866 29.837 6.16732 29.837C6.30598 29.837 6.41209 29.7123 6.62432 29.4628L8.62698 27.1086C8.83921 26.8592 8.94533 26.7344 9.08398 26.7344C9.22264 26.7344 9.32876 26.8592 9.54098 27.1086L9.54099 27.1086L11.5436 29.4628C11.7559 29.7123 11.862 29.837 12.0007 29.837C12.1393 29.837 12.2454 29.7123 12.4577 29.4628L14.4647 27.1035C14.6751 26.8562 14.7803 26.7325 14.9181 26.7318C15.0559 26.7312 15.1622 26.8538 15.375 27.0991L17.834 29.9344L20.3039 27.1793C20.5124 26.9466 20.6167 26.8303 20.7507 26.8303C20.8846 26.8303 20.9889 26.9466 21.1974 27.1793L23.6673 29.9344V9.34344C23.6673 8.47444 23.6673 8.03993 23.3974 7.76997C23.1274 7.5 22.6929 7.5 21.8239 7.5H18.8441C17.9751 7.5 17.5406 7.5 17.2706 7.23003C17.0007 6.96007 17.0007 6.52556 17.0007 5.65656V4C17.0007 2.11438 17.0007 1.17157 16.4149 0.585786C15.8291 0 14.8863 0 13.0007 0H8.33398C4.56275 0 2.67713 0 1.50556 1.17157C0.333984 2.34315 0.333984 4.22876 0.333984 8ZM4.08398 16.6667C4.08398 15.9763 4.64363 15.4167 5.33398 15.4167H18.6673C19.3577 15.4167 19.9173 15.9763 19.9173 16.6667C19.9173 17.357 19.3577 17.9167 18.6673 17.9167H5.33398C4.64363 17.9167 4.08398 17.357 4.08398 16.6667ZM4.08398 21.6667C4.08398 20.9763 4.64363 20.4167 5.33398 20.4167H18.6673C19.3577 20.4167 19.9173 20.9763 19.9173 21.6667C19.9173 22.357 19.3577 22.9167 18.6673 22.9167H5.33398C4.64363 22.9167 4.08398 22.357 4.08398 21.6667ZM8.29037 3.85396C8.29037 3.56746 8.05811 3.3352 7.77161 3.3352C7.4851 3.3352 7.25284 3.56746 7.25284 3.85396V5.11293C6.90059 5.1819 6.59462 5.32384 6.35037 5.53517C5.97599 5.85911 5.79207 6.30824 5.79207 6.77179C5.79207 7.19607 5.9216 7.6855 6.30671 8.06875C6.69455 8.45471 7.27182 8.66376 8.02797 8.66376C8.36925 8.66376 8.60907 8.73002 8.75219 8.83427C8.8654 8.91673 8.98205 9.06788 8.98205 9.42924C8.98205 9.5993 8.88954 9.7965 8.67291 9.96795C8.45748 10.1385 8.15297 10.252 7.8279 10.252C7.48124 10.252 7.22412 10.1639 7.02618 10.0251C6.82479 9.88374 6.6523 9.66684 6.51668 9.3608C6.4006 9.09887 6.09416 8.98063 5.83222 9.0967C5.57028 9.21278 5.45204 9.51922 5.56812 9.78116C5.762 10.2186 6.04159 10.6017 6.43024 10.8744C6.67497 11.0461 6.95038 11.1652 7.25284 11.2305V12.5C7.25284 12.7865 7.4851 13.0188 7.77161 13.0188C8.05811 13.0188 8.29037 12.7865 8.29037 12.5V11.2454C8.67378 11.1718 9.02912 11.0092 9.3168 10.7815C9.7163 10.4653 10.0196 9.99174 10.0196 9.42924C10.0196 8.79816 9.79078 8.30719 9.36305 7.99563C8.96523 7.70587 8.46863 7.62623 8.02797 7.62623C7.45942 7.62623 7.17813 7.47221 7.03857 7.33333C6.89629 7.19174 6.8296 6.99457 6.8296 6.77179C6.8296 6.58829 6.89814 6.43321 7.02924 6.31977C7.16336 6.20373 7.4078 6.09413 7.81746 6.10236C8.10536 6.10815 8.32455 6.14722 8.49633 6.22478C8.65699 6.29732 8.80104 6.41445 8.92592 6.6267C9.07122 6.87363 9.38917 6.95603 9.63611 6.81074C9.88304 6.66545 9.96544 6.34749 9.82014 6.10056C9.58954 5.70863 9.28456 5.4423 8.92329 5.27918C8.71824 5.1866 8.50446 5.1315 8.29037 5.10027V3.85396Z" fill="#2D6851"/>
<path d="M23.0829 5.60921C23.1849 5.83666 23.236 5.95038 23.1769 6.0417C23.1177 6.13302 22.9877 6.13302 22.7277 6.13302H21.3146C19.8662 6.13302 19.1421 6.13302 18.6921 5.68307C18.2422 5.23313 18.2422 4.50896 18.2422 3.06061V0.482776C18.2422 0.322799 18.4162 0.225081 18.5486 0.314826C19.26 0.79691 19.8483 1.46924 21.0249 2.81391C22.0046 3.93353 22.4944 4.49334 22.8431 5.12776C22.9295 5.28512 23.0095 5.44574 23.0829 5.60921Z" fill="#2D6851"/>
</svg>
