<svg width="36" height="36" viewBox="0 0 36 36" fill="none" xmlns="http://www.w3.org/2000/svg">
<path d="M18.0849 26.6238C18.5611 26.6238 18.9598 26.4629 19.281 26.141C19.6021 25.8191 19.7627 25.4203 19.7627 24.9445V18.0127C19.7627 17.5369 19.6016 17.1381 19.2794 16.8162C18.9572 16.4943 18.558 16.3334 18.0817 16.3334C17.6055 16.3334 17.2068 16.4943 16.8856 16.8162C16.5645 17.1381 16.404 17.5369 16.404 18.0127V24.9445C16.404 25.4203 16.565 25.8191 16.8872 26.141C17.2094 26.4629 17.6086 26.6238 18.0849 26.6238ZM18.0008 13.5592C18.5294 13.5592 18.9722 13.3832 19.3292 13.0311C19.6862 12.679 19.8647 12.2428 19.8647 11.7223C19.8647 11.1743 19.6861 10.7219 19.3287 10.365C18.9714 10.0082 18.5286 9.82975 18.0005 9.82975C17.4605 9.82975 17.0146 10.0082 16.6628 10.365C16.3111 10.7219 16.1352 11.1717 16.1352 11.7144C16.1352 12.2414 16.314 12.6807 16.6716 13.0321C17.0292 13.3835 17.4722 13.5592 18.0008 13.5592ZM18.0095 35.3262C15.6027 35.3262 13.3485 34.8736 11.2467 33.9685C9.14499 33.0634 7.30995 31.8267 5.74162 30.2584C4.17329 28.69 2.93658 26.855 2.0315 24.7533C1.12638 22.6516 0.673828 20.3966 0.673828 17.9883C0.673828 15.58 1.12638 13.3243 2.0315 11.2211C2.93658 9.11801 4.17247 7.28663 5.73916 5.72699C7.30586 4.16738 9.14042 2.93267 11.2429 2.02287C13.3453 1.11309 15.6012 0.658203 18.0104 0.658203C20.4196 0.658203 22.6763 1.11269 24.7807 2.02166C26.8851 2.93063 28.7167 4.16424 30.2755 5.72249C31.8344 7.28072 33.0685 9.11308 33.9778 11.2196C34.8871 13.3261 35.3418 15.5838 35.3418 17.9927C35.3418 20.4009 34.8869 22.6557 33.9771 24.7573C33.0673 26.8589 31.8326 28.6915 30.273 30.2552C28.7134 31.8188 26.8812 33.0549 24.7766 33.9634C22.6719 34.8719 20.4162 35.3262 18.0095 35.3262Z" fill="#2D6851"/>
</svg>
