<svg width="28" height="28" viewBox="0 0 28 28" fill="none" xmlns="http://www.w3.org/2000/svg">
<path d="M6.72741 12.8261C4.98448 12.8261 3.49913 12.2101 2.27135 10.978C1.04358 9.74592 0.429688 8.25842 0.429688 6.51549C0.429688 4.77257 1.04573 3.28722 2.2778 2.05944C3.50988 0.831662 4.99738 0.217773 6.7403 0.217773C8.48323 0.217773 9.96858 0.833811 11.1964 2.06589C12.4241 3.29796 13.038 4.78546 13.038 6.52839C13.038 8.27131 12.422 9.75666 11.1899 10.9844C9.95783 12.2122 8.47033 12.8261 6.72741 12.8261ZM6.75054 8.36361C7.25747 8.36361 7.68837 8.18062 8.04324 7.81465C8.3981 7.44868 8.57552 7.01221 8.57552 6.50526C8.57552 5.99833 8.3981 5.56743 8.04324 5.21255C7.68837 4.8577 7.25747 4.68027 6.75054 4.68027C6.24358 4.68027 5.80712 4.8577 5.44115 5.21255C5.07517 5.56743 4.89219 5.99833 4.89219 6.50526C4.89219 7.01221 5.07517 7.44868 5.44115 7.81465C5.80712 8.18062 6.24358 8.36361 6.75054 8.36361ZM21.1066 27.2053C19.3637 27.2053 17.8783 26.5892 16.6505 25.3572C15.4227 24.1251 14.8089 22.6376 14.8089 20.8947C14.8089 19.1517 15.4249 17.6664 16.657 16.4386C17.889 15.2108 19.3765 14.5969 21.1195 14.5969C22.8624 14.5969 24.3477 15.213 25.5755 16.4451C26.8033 17.6771 27.4172 19.1646 27.4172 20.9076C27.4172 22.6505 26.8012 24.1358 25.5691 25.3636C24.337 26.5914 22.8495 27.2053 21.1066 27.2053ZM21.1297 22.7428C21.6366 22.7428 22.0675 22.5598 22.4224 22.1938C22.7773 21.8278 22.9547 21.3914 22.9547 20.8844C22.9547 20.3775 22.7773 19.9466 22.4224 19.5917C22.0675 19.2369 21.6366 19.0594 21.1297 19.0594C20.6227 19.0594 20.1863 19.2369 19.8203 19.5917C19.4543 19.9466 19.2714 20.3775 19.2714 20.8844C19.2714 21.3914 19.4543 21.8278 19.8203 22.1938C20.1863 22.5598 20.6227 22.7428 21.1297 22.7428ZM3.0151 24.6199C2.5901 24.1949 2.3776 23.6754 2.3776 23.0615C2.3776 22.4476 2.5901 21.9282 3.0151 21.5032L21.7151 2.80319C22.1401 2.37819 22.6595 2.16569 23.2734 2.16569C23.8873 2.16569 24.4068 2.37819 24.8318 2.80319C25.2568 3.22819 25.4693 3.74763 25.4693 4.36152C25.4693 4.97541 25.2568 5.49486 24.8318 5.91986L6.13177 24.6199C5.70677 25.0449 5.18733 25.2574 4.57344 25.2574C3.95955 25.2574 3.4401 25.0449 3.0151 24.6199Z" fill="#2D6851"/>
</svg>
