<svg width="28" height="36" viewBox="0 0 28 36" fill="none" xmlns="http://www.w3.org/2000/svg">
<path d="M11.9646 18.976L14.0733 17.3929L16.1503 18.976C16.4657 19.2199 16.7828 19.2343 17.1015 19.019C17.4202 18.8037 17.5256 18.5062 17.4175 18.1264L16.6134 15.5037L18.8317 13.7933C19.126 13.5515 19.2122 13.2512 19.0902 12.8923C18.9682 12.5334 18.7151 12.354 18.3308 12.354H15.6675L14.8157 9.65199C14.705 9.28623 14.457 9.10039 14.0716 9.09444C13.6862 9.08853 13.436 9.27437 13.3209 9.65199L12.4513 12.354H9.81573C9.42884 12.354 9.17441 12.5334 9.05244 12.8923C8.93044 13.2512 9.01659 13.5515 9.3109 13.7933L11.5292 15.5037L10.7152 18.1264C10.6 18.5062 10.7053 18.8037 11.0309 19.019C11.3564 19.2343 11.6677 19.2199 11.9646 18.976ZM6.15448 35.4029C5.63173 35.5825 5.15222 35.5134 4.71594 35.1958C4.27963 34.8782 4.06148 34.4454 4.06148 33.8975V23.3244C2.83201 22.0342 1.92455 20.5956 1.3391 19.0087C0.75366 17.4219 0.460938 15.7917 0.460938 14.1182C0.460938 10.2859 1.77158 7.05906 4.39285 4.43778C7.01413 1.8165 10.2409 0.505859 14.0733 0.505859C17.9056 0.505859 21.1335 1.8165 23.757 4.43778C26.3805 7.05906 27.6922 10.2859 27.6922 14.1182C27.6922 15.7917 27.3984 17.4219 26.8107 19.0087C26.2231 20.5956 25.3145 22.0342 24.0851 23.3244V33.8975C24.0851 34.4454 23.8669 34.8782 23.4306 35.1958C22.9943 35.5134 22.5148 35.5825 21.9921 35.4029L14.0733 32.7649L6.15448 35.4029ZM14.0733 24.5741C16.9889 24.5741 19.4605 23.5615 21.488 21.5362C23.5155 19.511 24.5292 17.0383 24.5292 14.1182C24.5292 11.2025 23.5155 8.73094 21.488 6.70344C19.4605 4.67597 16.9889 3.66223 14.0733 3.66223C11.1576 3.66223 8.68604 4.67597 6.65856 6.70344C4.63109 8.73094 3.61735 11.2025 3.61735 14.1182C3.61735 17.0383 4.63109 19.511 6.65856 21.5362C8.68604 23.5615 11.1576 24.5741 14.0733 24.5741Z" fill="#2D6851"/>
</svg>
